<svg xmlns="http://www.w3.org/2000/svg" viewBox="0 0 500 500" fill-rule="evenodd" stroke-linejoin="round" stroke-miterlimit="2"><path id="FG" d="M191.139 366.965c72.615 9.224 197.394-31.69 255.716-75.849l-52.827-31.697c-65.931 61.018-134.051 90.172-202.799 83.723l-.01-25.548c61.529 10.063 122.72-28.975 182.382-94.449-51.798-54.954-111.066-89.279-182.393-84.718l.888-41.264h288.902v305.674H192.096l-.957-35.85-.001.203C105.153 356.563 53.33 301.984 19.002 225.61c48.639-48.19 111.452-80.701 172.206-87.193v22.225c-47.053 4.526-88.57 24.422-124.356 67.433 22.965 65.985 63.825 104.475 124.356 115.05l-.069 23.84zm.101-182.494l.069-23.834c49.779-2.612 95.626 19.153 132.987 63.917-46.407 59.348-91.272 82.575-133.047 71.571l-.021-71.183-.02 71.085v21.533c-54.498-14.345-78.209-46.605-89.49-86.315 22.279-21.645 53.399-38.574 89.49-42.885v-27.718l.039-.004-.007 23.833zm-.032 27.912v83.644c-21.933-7.628-40.205-25.338-51.807-60.204 15.562-17.613 32.489-24.603 51.807-23.44zm.024-.01l.007-23.959c38.387-2.959 69.386 10.066 92.908 36.844l-39.444 33.105c-14.315-29.285-30.016-44.827-53.471-45.99zm-.024-24.013v24.023h.01l-.01-24.023z" /></svg>