<svg width="100%" height="100%" viewBox="0 0 500 500" version="1.1" xmlns="http://www.w3.org/2000/svg" style="fill-rule:evenodd;clip-rule:evenodd;stroke-linejoin:round;stroke-miterlimit:2;"><path id="FG" d="M16.138,427.539c-0.051,0.453 -0.073,0.908 -0.067,1.364c0.751,57.211 63.065,75.831 97.525,46.473c0.713,-0.607 1.346,-1.303 1.883,-2.071l27.145,-38.833c28.517,23.37 74.649,14.685 90.113,-19.403c-0,0 34.037,0 34.037,0c14.726,32.603 57.946,44.93 89.895,20.093c-0,-0 21.457,32.911 21.457,32.911c0.394,0.604 0.847,1.168 1.351,1.684c39.204,40.073 98.569,14.982 104.379,-34.884c0.101,-0.862 0.099,-1.733 -0.005,-2.594l-12.447,-102.926c2.244,-26.598 -7.208,-52.485 -33.502,-74.096c-0.129,-20.99 -8.577,-35.604 -20.105,-44.53c-27.626,-21.391 -75.473,-9.906 -85.021,30.333c0.001,0 -164.389,0 -164.389,0c-8.99,-41.775 -58.303,-54.261 -86.419,-32.651c-11.685,8.981 -20.216,23.807 -20.149,45.246c-18.058,13.132 -29.619,31.464 -32.602,56.657c-0.003,0.024 -0.006,0.049 -0.008,0.074l-13.071,117.153Zm21.944,1.725l12.986,-116.398c2.407,-20.249 12.348,-34.468 27.855,-44.237c3.462,-2.181 5.428,-6.104 5.102,-10.183c-1.242,-15.553 3.361,-26.455 11.349,-32.594c18.249,-14.026 50.946,-3.372 52.385,26.734c0.28,5.864 5.116,10.474 10.987,10.474l183.476,0c5.789,0 10.587,-4.487 10.975,-10.263c1.931,-28.769 33.405,-38.4 51.131,-24.675c7.806,6.044 12.418,16.639 11.442,31.648c-0.241,3.709 1.406,7.288 4.381,9.517c22.76,17.054 31.347,37.666 29.245,59.159c-0.078,0.796 -0.069,1.598 0.027,2.392l12.421,102.71c-4.488,30.748 -41.176,45.811 -65.909,21.557c-0.002,-0.002 -28.039,-43.004 -28.039,-43.004c-1.888,-2.896 -5.026,-4.735 -8.474,-4.968c-3.448,-0.232 -6.805,1.169 -9.065,3.784c-21.706,25.126 -57.793,16.977 -65.319,-9.822c-1.333,-4.746 -5.661,-8.026 -10.591,-8.026l-49.378,0c-4.929,0 -9.256,3.278 -10.59,8.023c-7.967,28.334 -46.977,33.508 -64.244,9.607c-2.086,-2.888 -5.44,-4.586 -9.002,-4.559c-3.562,0.028 -6.889,1.779 -8.93,4.698l-33.991,48.626c-21.803,17.208 -59.31,4.873 -60.23,-30.196l-0,-0.004Zm211.918,-263.123c13.206,-0 23.928,10.722 23.928,23.928c0,13.206 -10.722,23.928 -23.928,23.928c-13.206,0 -23.928,-10.722 -23.928,-23.928c-0,-13.206 10.722,-23.928 23.928,-23.928Zm0,-72.219c13.206,0 23.928,10.722 23.928,23.928c0,13.207 -10.722,23.929 -23.928,23.929c-13.206,-0 -23.928,-10.722 -23.928,-23.929c-0,-13.206 10.722,-23.928 23.928,-23.928Zm0,-72.303c13.206,-0 23.928,10.722 23.928,23.928c0,13.206 -10.722,23.928 -23.928,23.928c-13.206,0 -23.928,-10.722 -23.928,-23.928c-0,-13.206 10.722,-23.928 23.928,-23.928Z"/></svg>