<svg xmlns="http://www.w3.org/2000/svg" viewBox="0 0 500 500" fill-rule="evenodd" stroke-linejoin="round" stroke-miterlimit="2"><path id="FG" d="M370.425 281.707l-2.044-5.842c-6.81-24.678-17.154-47.541-35.024-66.314-15.978-16.785-34.978-27.35-58.938-26.34-21.16.895-38.04 10.892-52.336 25.735-17.869 18.556-28.849 41.022-35.09 65.704-12.348 48.831-9.968 96.649 12.438 142.434 9.734 19.896 23.493 36.523 43.13 47.752 14.039 8.025 29.119 10.248 44.942 8.995 6.234-.494 10.477-3.896 11.481-9.96 1.312-7.928 2.306-15.982 2.511-24.005.387-15.07-.133-30.162.185-45.238.288-13.681-5.57-24.165-16.861-30.87-7.456-4.425-16.162-6.764-24.35-9.926-3.111-1.202-6.474-1.817-9.453-3.254-1.335-.646-2.011-2.655-2.987-4.045 1.367-.75 2.669-1.674 4.118-2.191.95-.336 2.111-.093 3.176-.093l150.805.078c1.998.003 3.997 1.143 5.995 1.751-1.634 1.356-3.08 3.123-4.942 3.975-3.3 1.504-6.967 2.202-10.283 3.684-11.476 5.123-17.841 13.657-17.789 26.663l-.059 62.146c.03 4.089-1.347 6.806-4.257 9.428-15.669 14.125-33.974 23.538-53.884 29.872-32.795 10.429-66.442 14.733-100.513 9.254-43.314-6.962-76.918-30.226-101.577-66.076-46.475-67.562-39.942-158.91 15.194-219.53 45.455-49.975 119.63-63.377 180.851-32.707l24.609 11.973c9.531 4.298 19.611 6.693 30.105 6.54 3.878-.056 5.61 1.405 5.961 5.052.437 4.542 1.415 9.095 1.29 13.619l-2.294 62.939c-.131 2.99-1.464 5.925-2.241 8.885l-1.869-.088zm-184.084-164.74c-7.391 1.387-14.228 3.119-21.17 3.889-22.182 2.457-44.396 4.596-66.173 9.776-12.609 2.999-24.756 7.262-36.359 13.046-.949.473-1.845 1.051-2.766 1.581l.36.831 9.784-2.755c-.155 5.316 3.509 6.87 7.273 8.393 2.794 1.13 5.53 2.404 8.292 3.613l-.188 1.075c-2.071 0-4.147.08-6.213-.012-15.119-.67-29.301-4.42-41.921-13.069-4.01-2.745-7.474-5.952-8.749-11.022-.587-2.33-.054-3.726 1.702-5.241 14.886-12.851 31.763-22.245 50.055-29.277 21.446-8.244 43.482-14.531 65.765-20.002 6.11-1.5 10.567.346 14.008 5.696 2.309 3.588 4.423 7.301 6.653 10.942 3.227 5.275 7.112 10.405 12.699 12.771 4.571 1.937 5.297 5.271 6.948 9.765zm227.791 38.296l9.34-3.991c2.988-1.284 5.937-2.544 6.33-6.48.037-.378 1.855-.986 2.698-.803 2.561.558 5.046 1.45 7.562 2.211l.367-.789c-.918-.523-1.817-1.085-2.758-1.564-16.425-8.368-33.907-13.544-52.029-16.337-16.77-2.583-33.672-4.299-50.482-6.633-6.322-.878-12.555-2.406-18.822-3.675-.8-.162-1.555-.557-2.518-.913 1.3-3.865 2.062-7.143 6.61-9.089 5.594-2.393 9.478-7.508 12.725-12.765l6.642-10.951c3.372-5.262 7.66-7.23 13.693-5.756 26.769 6.537 53.275 13.96 78.5 25.273 13.715 6.15 26.259 14.206 37.679 24.02 1.942 1.667 2.642 3.493 1.495 5.555-1.628 2.923-3.135 6.297-5.639 8.285-14.611 11.599-31.641 15.817-50.03 15.37-.298-.008-.597-.163-.883-.278-.083-.033-.125-.167-.48-.69zM311.386 68.672c-1.811.774-3.594 1.625-5.439 2.308l-26.082 9.631c-8.177 3.293-14.179 9.241-17.455 17.412-3.641 9.085-6.71 18.399-10.02 27.615-.216.601-.229 1.327-.586 1.813-.52.71-1.289 1.758-1.909 1.729-.658-.032-1.59-1.042-1.842-1.811-1.396-4.25-2.314-8.678-3.97-12.816-2.924-7.304-6.001-14.571-9.503-21.611-2.975-5.98-8.368-9.763-14.375-12.216-8.673-3.541-17.582-6.501-26.371-9.759-1.822-.676-3.563-1.57-5.34-2.364l-.06-1.188c1.859-.841 3.671-1.817 5.585-2.503l22.314-7.847c10.958-3.987 18.671-11.417 22.729-22.374 2.923-7.89 5.529-15.896 8.268-23.852.14-.403.118-.894.344-1.225.733-1.064 1.547-2.072 2.329-3.103.756 1.079 1.817 2.056 2.217 3.254 1.856 5.557 3.634 11.147 5.246 16.779 4.994 17.447 16.113 28.664 33.62 33.605 5.123 1.447 10.159 3.211 15.198 4.935 1.749.598 3.39 1.516 5.08 2.288l.022 1.3z"/></svg>