<svg xmlns="http://www.w3.org/2000/svg" viewBox="0 0 500 500" fill-rule="evenodd" stroke-linejoin="round" stroke-miterlimit="2"><path id="FG" d="M111.438 427.927c-.389.869-1.047 2.244-1.755 3.311-6.513 9.8-22.555 24.896-32.513 35.369-4.937 5.192-8.438 9.516-9.394 11.816-.893 2.147-.647 3.877-.157 5.055.615 1.477 1.721 2.667 3.613 3.255 3.247 1.01 10.794.834 20.706-.475 20.858-2.753 53.366-9.791 75.525-14.605l22.349-4.626c86.559 25.075 183.527-5.689 241.271-81.852 75.414-99.469 56.311-241.26-42.448-317.277.554-.978 1.533-2.609 2.548-3.84 5.528-6.704 15.691-15.429 23.992-23.223 6.089-5.716 11.2-11.036 13.385-14.844 1.605-2.798 1.919-5.272 1.511-7.108-.44-1.978-1.577-3.661-3.759-4.811-1.956-1.03-5.259-1.645-9.649-1.507-7.792.244-19.945 2.553-33.258 5.525-19.306 4.308-41.145 9.984-55.113 12.187-4.967.783-8.72 1.299-10.607.711-88.793-27.645-189.289 1.334-248.682 79.672-75.414 99.469-56.311 241.26 42.435 317.267zM418.85 22.553l-.141.195c-1.317 1.733-3.121 3.691-5.216 5.803-9.914 9.994-25.817 23.026-31.935 31.623-4.648 6.531-3.972 11.887-.299 14.672 95.521 72.42 114.275 208.767 41.855 304.288-55.375 73.039-148.478 102.461-231.415 78.029-.374-.11-1.64-.329-3.669-.01-3.327.524-11.759 2.353-22.69 4.728-21.921 4.762-54.077 11.739-74.711 14.463-3.771.498-7.108.896-9.844 1.085l.31-.352c9.736-10.84 30.134-29.675 37.359-40.984 2.111-3.304 3.193-6.222 3.326-8.383.18-2.917-.872-5.143-2.953-6.721C23.306 348.568 4.551 212.222 76.972 116.701c56.779-74.891 152.854-102.593 237.74-76.165 2.689.837 8.063.734 15.138-.381 14.124-2.228 36.211-7.949 55.733-12.305 10.849-2.422 20.882-4.421 28.193-5.086 1.911-.173 3.617-.255 5.074-.211zm-84.725 114.462c-61.209-46.406-148.578-34.388-194.984 26.821s-34.388 148.577 26.82 194.983 148.578 34.389 194.984-26.82 34.388-148.578-26.82-194.984h0zm-6.042 7.969c56.811 43.072 67.965 124.163 24.893 180.974s-124.163 67.964-180.973 24.893-67.965-124.163-24.893-180.974 124.163-67.964 180.973-24.893h0z"/></svg>