<svg xmlns="http://www.w3.org/2000/svg" viewBox="0 0 500 500" fill-rule="evenodd" stroke-linejoin="round" stroke-miterlimit="2"><path id="FG" d="M427.574 393.646l-8.685 86.851-168.49-43.426-19.107-48.636 196.282 5.211zm-15.315 13.494l-5.585 55.858-145.936-37.612-8.84-22.503 160.361 4.257zM62.802 355.432h59.058l-17.572-234.496-84.706 27.791 43.22 206.705zm92.061 0h57.322l-7.922-265.816-99.975 31.319 50.575 234.497zm196.283 0h79.902l24.719-343.929-121.516 38.215 16.895 305.714zm-104.221 0h66.006l21.32-305.7-129.988 39.883 42.662 265.817zM74.093 341.536L35.728 158.055l56.029-18.383 15.127 201.864H74.093zm184.676 0L219.9 99.353l99.081-30.4-19.01 272.583h-41.202zm-92.687 0l-45.536-211.132 70.373-22.046 6.949 233.178h-31.786zm198.213 0L348.722 59.734l91.72-28.844-22.327 310.646h-53.82z"/></svg>