<svg width="100%" height="100%" viewBox="0 0 500 500" xmlns="http://www.w3.org/2000/svg" style="fill-rule:evenodd;clip-rule:evenodd;stroke-linejoin:round;stroke-miterlimit:2;"><path id="FG" d="M395.764,344.602c-4.712,20.062 -8.096,42.559 -62.051,3.42l0.693,84.042c2.219,17.687 10.516,35.312 30.219,54.047c19.719,-18.75 28.016,-36.36 30.235,-54.047l0.904,-87.462Zm-135.171,-33.726c1.422,-68 -4.297,-124.297 0.282,-137.5c6.859,-8.422 18.281,-23.438 18.281,-23.438c-0,0 -76.86,-55.14 -116.578,-65.14c-18.282,-3.422 -93.438,65.14 -93.438,65.14l1.437,23.578c0,0 29.33,-23.158 46.669,-16.728c1.173,0.435 2.422,0.718 3.625,1.14c-2.493,26.263 -8.043,35.635 -21.153,39.167c17,32.203 53.279,99.814 -67.669,203.114c-0,-0 123.466,-31.614 128.607,-137.333l58.578,-0l-2.859,80.719c-0.778,17.277 91.772,17.9 64.297,-10.719c-0,0 -20.079,0.175 -20.079,-22Zm100.935,-49.791c16.423,-11.047 20.505,7.901 19.477,29.708c-1.028,21.806 -7.166,46.471 -11.186,46.854c-23.464,2.239 -41.205,-54.421 -8.291,-76.562Zm-29.013,-11.946c0.557,-0.49 1.362,-0.788 1.787,-1.462c30.945,-49.07 51.693,-20.76 62.504,-3.776l0.882,-85.275c0.182,-14.854 0.082,-7.109 34.984,-8c8.843,-20.747 8.765,-20.625 0.063,-21c-52.304,11.933 -52.435,12.236 -52.438,-0c-1.87,-6.587 -2.394,-13.006 -0.097,-19.072l-0.132,-25.88c-2.355,-10.288 -2.998,-20.089 -0.146,-28.814c-0,0 37.003,-42.213 -15.297,-41.969c-52.055,0.243 -15.281,41.969 -15.281,41.969c4.181,13.687 0.419,21.407 -0.147,28.814l-0.128,25.268c2.089,7.168 1.458,13.558 -0.1,19.684c-0.301,12.313 -0.164,12.623 -52.453,-0c-6.36,0.024 -6.555,-0.255 0.078,20.922c35.195,-0.122 35.122,-6.736 34.984,8l0.937,90.591Zm-116.219,-33.419l-54.343,-0l-0.523,-52.315c31.366,0.255 54.308,26.748 54.866,52.315Z"/></svg>