<svg width="100%" height="100%" viewBox="0 0 500 500" xmlns="http://www.w3.org/2000/svg" style="fill-rule:evenodd;clip-rule:evenodd;stroke-linejoin:round;stroke-miterlimit:2;"><path id="FG" d="M494.552,237.266l-114.178,-0l-31.286,-88.843l-32.363,88.165l-80.379,0l62.082,51.984l-20.761,79.144l75.538,-36.558l96.361,79.753l-38.048,-121.563l83.034,-52.082Zm-139.991,77.961l-53.738,26.621l13.875,-55.649l-45.892,-37.329l56.991,0l23.28,-65.481l20.904,66.159l83.816,0l-56.515,33.699l30.166,95.454l-72.887,-63.474Zm-168.785,52.489l74.571,-0c-6.101,-10.508 -8.474,-25.761 -8.474,-35.252c0,-15.592 1.017,-30.846 1.017,-50.844c0,-26.44 -7.796,-40.337 -28.473,-45.421l0,-0.678c43.727,-6.102 63.725,-35.252 63.725,-75.928c0,-57.962 -38.641,-70.504 -89.147,-70.504l-135.923,0l-57.624,272.525l72.199,0l21.016,-99.315l48.132,-0c25.761,-0 36.269,12.541 36.269,36.608c0,18.303 -2.034,32.879 -2.034,46.776c0,5.085 1.017,17.287 4.746,22.033Zm-17.287,-156.262l-57.624,0l13.898,-65.758l53.556,-0c18.982,-0 38.98,5.084 38.98,28.134c0,29.489 -22.71,37.624 -48.81,37.624Z"/></svg>