<?xml version="1.0" encoding="UTF-8" standalone="no"?>
<!DOCTYPE svg PUBLIC "-//W3C//DTD SVG 1.1//EN" "http://www.w3.org/Graphics/SVG/1.1/DTD/svg11.dtd">
<svg width="100%" height="100%" viewBox="0 0 768 264" version="1.1" xmlns="http://www.w3.org/2000/svg" xmlns:xlink="http://www.w3.org/1999/xlink" xml:space="preserve" xmlns:serif="http://www.serif.com/" style="fill-rule:evenodd;clip-rule:evenodd;stroke-linejoin:round;stroke-miterlimit:2;">
    <g transform="matrix(23.2729,0,0,1.01333,-11.8467,-43.5577)">
        <g>
            <g transform="matrix(1,0,0,1,16.6883,-236.728)">
                <g id="O1" transform="matrix(0.0292896,0,0,0.672685,-5.98004,-49.6208)">
                    <path d="M521.413,524.027L763.471,524.027L763.471,844.289L627.811,844.289L521.413,732.999L521.413,605.955L603.34,605.955L603.34,764.223L681.544,764.223L681.544,605.955L521.413,605.955L521.413,524.027" style="fill:white;"/>
                </g>
                <g id="O2" transform="matrix(0.0292896,0,0,0.672685,-5.98004,-49.6208)">
                    <path d="M521.413,779.563L583.332,844.289L521.413,844.289L521.413,779.563Z" style="fill:white;"/>
                </g>
            </g>
            <g transform="matrix(1,0,0,1,16.6883,-237.355)">
                <g id="N1" transform="matrix(0.0292896,0,0,0.672685,-5.98004,-49.6208)">
                    <path d="M236.529,490.512L236.529,844.29L318.526,844.29L318.526,695.418L491.688,877.804L491.688,524.027L409.685,524.027L409.685,672.954L236.529,490.512Z" style="fill:white;"/>
                </g>
                <g id="N2" transform="matrix(0.0292896,0,0,0.672685,-5.98004,-49.6208)">
                    <path d="M312.571,524.027L387.371,602.231L387.371,524.027L312.571,524.027Z" style="fill:white;"/>
                </g>
            </g>
            <g id="C" transform="matrix(0.0292896,0,0,0.672685,-5.98004,-49.6208)">
                <path d="M521.413,170.25L521.413,492.373L763.471,492.373L763.471,412.333L603.37,412.333L603.37,254.018L763.471,254.018L763.471,170.25L521.413,170.25" style="fill:white;"/>
            </g>
            <g id="T" transform="matrix(0.0292896,0,0,0.672685,-5.98004,-49.6208)">
                <path d="M236.529,170.25L236.529,252.244L305.457,252.244L305.457,492.373L387.384,492.373L387.384,252.244L492,252.244L492,170.25L236.529,170.25Z" style="fill:white;"/>
            </g>
        </g>
    </g>
</svg>
