<svg xmlns="http://www.w3.org/2000/svg" viewBox="0 0 1000 1000"  fill-rule="evenodd" stroke-linecap="round" stroke-miterlimit="5"><circle cx="15" cy="15" r="15" fill="#fff" transform="scale(33.3333)"/><g transform="matrix(30.3949 0 0 30.3949 44.0759 44.0759)"><circle cx="15" cy="15" r="15" fill="#4f5668"/><clipPath id="A"><circle cx="15" cy="15" r="15"/></clipPath><g clip-path="url(#A)"><g transform="matrix(.01645 .028492 -.028492 .01645 21.0212 -7.47126)"><circle cx="500" cy="500" r="455.924" fill="url(#B)"/></g><g transform="matrix(.456256 0 0 .456256 4.73164 1.08419)"><g fill="#c7d5e0"><circle cx="283.043" cy="416.793" r="86.697" fill-opacity=".8" transform="matrix(.072109 0 0 .072109 -13.1155 -5.55456)"/><circle cx="283.043" cy="416.793" r="86.697" fill-opacity=".8" transform="matrix(.055718 0 0 .056755 22.7228 13.8449)"/></g><g transform="matrix(.098373 .040782 -.010633 .02565 -15.2542 .530208)"><path d="M257.223 400.774h355.274v163.647H257.223z" fill="#c7d5e0"/></g><path d="M38.108 31.03c-.961.058-1.883.321-2.721.781l-20.47-8.389A7.5 7.5 0 0 0 7.5 17 7.51 7.51 0 0 0 0 24.5 7.51 7.51 0 0 0 7.5 32c1.494 0 2.912-.452 4.144-1.274l20.592 8.44c.006.034-.002.067.008.101C33.029 42.054 35.602 44 38.5 44a6.51 6.51 0 0 0 6.5-6.5c0-.175-.012-.348-.026-.52-.257-3.215-3.011-6.18-6.866-5.95zM6.241 26.351c-1.02-.418-1.51-1.589-1.093-2.608s1.591-1.511 2.61-1.093l30.499 12.5c.495.203.881.586 1.087 1.079s.208 1.036.005 1.531a2 2 0 0 1-2.608 1.092l-30.5-12.501zM7.5 30A5.51 5.51 0 0 1 2 24.5 5.51 5.51 0 0 1 7.5 19c2.293 0 4.274 1.425 5.089 3.467l-4.073-1.669a4.01 4.01 0 0 0-5.219 2.185 4.01 4.01 0 0 0 2.185 5.218l3.725 1.527C8.662 29.906 8.089 30 7.5 30zm31 12c-1.394 0-2.668-.66-3.505-1.703l.988.405a4 4 0 0 0 1.517.3c.523 0 1.047-.104 1.545-.313.985-.412 1.751-1.184 2.155-2.172a4.01 4.01 0 0 0-2.184-5.22l-.694-.285c.06-.001.118-.012.178-.012 2.481 0 4.5 2.019 4.5 4.5S40.981 42 38.5 42z" fill="#fff" fill-rule="nonzero" stroke="#1b2838" stroke-width=".58"/><g transform="matrix(0 -.144218 .145381 0 -13.5489 66.5546)"><path d="M0 0h500v496H0z" fill="#474747"/></g></g></g></g><circle cx="500" cy="500" r="455.924" fill="url(#C)" transform="matrix(.5 .866025 -.866025 .5 683.013 -183.013)"/><path d="M495.993 384.76l290.627-.073-.074 119.328M503.962 615.188l-290.627.073.074-119.328" fill="none" stroke="#fff" stroke-width="7.92" stroke-linecap="butt" stroke-miterlimit="1.5"/><path d="M25.98 66.156h7.09v215.435h-3.973l-3.116-74.863v-85.461h2.4v106.465h2.291V121.268h-4.69V66.156m-.002 171.896l1.814 43.54H25.98v-43.54zM17.636 42.984v237.981h2.402V180.821L25.11 303.51V65.529h-2.402V165.71L17.636 42.984zm2.227 22.545l2.191 52.607V65.529h-2.191zm-10.571-.625v216.687h7.09v-53.842h-4.689V121.253h4.689V64.904h-7.09m-8.344 0v55.156h2.019v161.531h2.4V120.06h3.064V64.904H.948z" transform="matrix(15.106 0 0 .657733 243.049 386.128)" fill="#fff"/><path d="M854.991 316.32l-157.218 68.356h88.863v82.027l68.356-150.383zM145.009 683.68l157.218-68.356h-88.863v-82.027L145.009 683.68z" stroke="#fff" fill="#69e781" fill-rule="nonzero" stroke-width="7.998"/><defs><linearGradient id="B" x1="44.076" y1="500" x2="955.924" y2="500" gradientUnits="userSpaceOnUse"><stop offset="0" stop-color="#3b4d7b"/><stop offset="1" stop-color="#2d3347"/></linearGradient><linearGradient id="C" x1="44.076" y1="500" x2="955.924" y2="500" gradientUnits="userSpaceOnUse"><stop offset="0" stop-color="#1f1f1f"/><stop offset="1" stop-color="#2b2b2b"/></linearGradient></defs></svg>