<svg xmlns="http://www.w3.org/2000/svg" width="100%" height="100%" viewBox="0 0 500 500" fill-rule="evenodd" stroke-linejoin="round" stroke-miterlimit="2"><path d="M207.299 231.45V117.232h116.727c52.55 0 62.881 36.669 63.251 67.582-.278 25.704-3.409 43.986-28.938 56.579 39.107 21.122 36.371 39.399 35.73 80.996-.445 36.433-15.372 59.027-78.949 59.93H207.299v-1.252l-54.788-123.869-31.992 71.183h23.994l22.861 54.387-154.566-.795 134.105-264.741 60.386 114.218zm63.295-52.745v44.426h41.073c7.248-.129 22.829-6.864 22.955-22.612.082-10.345-5.654-21.655-23.375-21.965l-40.653.151zm0 93.881v49.361h41.073c4.502.009 31.112.86 31.323-25.616.157-19.578-22.811-24.41-31.743-23.897l-40.653.152zm190.809-155.354v265.536h-51.547V117.232h51.547z" id="FG"/></svg>