<svg xmlns="http://www.w3.org/2000/svg" width="100%" height="100%" viewBox="0 0 2084 2084" version="1.1" xml:space="preserve" xmlns:serif="http://www.serif.com/"><path id="GLASS" d="M2083.998 0H.043v2084L2083.998 0z"/><g id="FG"><path d="M645.688 540.773c106.324 3.89 883.989 175.94 644.225 378.824 409.161-190.634-503.315-401.874-644.225-378.824z"/><path d="M1010.358 1145.864c-61.086-87.113-393.403-810.957-86.919-742.291-398.982-211.11-16.523 643.869 86.919 742.291z"/><path d="M1081.108 1128.3c-50.265-93.775-293.921-852.075 2.192-747.36-370.97-257.171-93.162 637.307-2.192 747.36z"/><path d="M1408.215 498.602c-50.572 93.61-549.205 714.692-624.933 409.87-10.271 451.282 583.199-273.32 624.933-409.87z"/><path d="M1360.855 443.185c-61.371 86.913-630.489 644.12-669.338 332.444-63.997 446.839 611.624-201.843 669.338-332.444z"/><path d="M681.746 450.2c106.151-7.204 897.505 82.919 680.173 309.671C1749.001 527.662 819.488 412.6 681.746 450.2z"/></g><path id="TEXT" d="M279.339 1613.412c22.344 0 33.518-11.174 33.518-33.515s-11.174-33.519-33.518-33.519h-67.032v67.034h67.032zm33.518-134.068c0-22.345-11.174-33.515-33.518-33.515h-67.032v67.034h67.032c22.344 0 33.518-11.174 33.518-33.519zm-33.518-67.034c44.688 0 67.032 22.345 67.032 67.034 0 22.345-5.585 39.104-16.755 50.279 11.174 11.174 16.755 27.93 16.755 50.279 0 44.689-22.344 67.034-67.032 67.034H178.788v-234.621h100.551v-.004zm210.15 150.827l-34.185-98.877-34.189 98.877h68.375zm11.562 33.519h-91.498l-17.263 50.274h-35.361l80.607-234.117.171-.504h35.194l.167.504 80.607 234.117h-35.361l-17.263-50.274zm146.969-150.827v201.102h-33.518v-201.102h-67.032v-33.519h167.583v33.519H648.02zm201.102 0v201.102h-33.518v-201.102H748.57v-33.519h167.583v33.519h-67.032zm100.551-33.519h33.518v201.102h100.551v33.519H949.676V1412.31h-.004zm201.097 201.102h117.31v33.519h-150.824V1412.31h150.824v33.519h-117.31v50.274h100.551v33.519H1150.77v83.793-.004zm150.824 0h33.518v33.519h-33.518v-33.519zm100.551-153.507v187.026h-33.518V1412.31h33.518l100.551 100.553V1412.31h33.518v234.621h-33.518v-86.473l-100.551-100.553zm201.102 153.507h117.306v33.519h-150.824V1412.31h150.824v33.519h-117.306v50.274h100.551v33.519h-100.551v83.793-.004zm234.616-167.583v201.102h-33.514v-201.102h-67.032v-33.519h167.583v33.519h-67.037z" stroke-width="8.336"/></svg>