<svg width="100%" height="100%" viewBox="0 0 2084 2084" version="1.1" xmlns="http://www.w3.org/2000/svg"><path id="GLASS" d="M2083.51,0l-2083.33,0l0,2083.33l2083.33,-2083.33Z"/><g id="FG"><path d="M1415.13,366.667c-83.404,224.033 -219.821,382.95 -348.95,475.808c-84.437,60.717 -165.1,92.738 -224.425,94.3c-28.375,0.746 -50.891,-5.704 -63.695,-22.117c-11.825,-15.15 -13.75,-37.8 -7.625,-67.887c8.32,-40.85 31.82,-93.013 74.479,-156.929l-41.505,-27.879c-56.9,84.266 -83.054,150.987 -86.549,199.75c-3.442,48.029 13.066,81.333 41.304,100.762c17.995,12.383 41.379,19.433 69.137,19.775c39.271,0.475 88.338,-11.892 141.688,-38.437c154.841,-77.046 350.75,-272.18 446.141,-577.146Z"/><path d="M1259.18,495.892c-31.091,-55.963 -62.32,-96.93 -92.608,-124.821c-35.387,-32.584 -70.179,-48.096 -101.646,-51.279c-41.892,-4.242 -79.729,12.579 -109.787,46.908c-29.388,33.567 -51.984,84.946 -61.596,148.25c-10.021,66.021 -6.783,145.279 14.304,228.813c36.463,144.454 125.788,302.079 287.917,427.07c-82.909,-75.037 -142.642,-158.112 -184.192,-241.837c-49.458,-99.659 -71.6,-199.988 -75.075,-288.475c-2.6,-66.242 5.538,-125.521 22.333,-172.329c14.025,-39.092 33.505,-69.125 58.663,-84.509c24.792,-15.162 54.492,-13.233 87.033,7.638c19.571,12.55 39.721,31.475 60.721,57.062c16.467,20.063 33.529,43.942 50.567,72.392c6.866,11.967 22.158,16.108 34.125,9.242c11.966,-6.867 16.108,-22.159 9.241,-34.125Z"/><path d="M1008.51,499.333c100.308,-1.679 184.704,17.588 248.599,44.742c57.084,24.254 95.838,54.871 112.313,81.946c4.15,6.821 6.979,12.779 5.35,18.191c-0.929,3.092 -3.933,5.05 -7.721,7.146c-5.604,3.105 -12.746,5.625 -21.55,7.384l8.992,49.183c42.046,-7.375 62.925,-27.746 69.171,-49.608c3.812,-13.342 3.045,-28.555 -4.3,-44.13c-8.505,-18.041 -26.042,-37.82 -52.655,-55.47c-67.716,-44.917 -196.287,-81.909 -358.2,-59.384Z"/><path d="M608.333,583.333c81.8,-10.6 164.281,-15.038 246.746,-13.275c58.842,1.229 112.817,5.855 162.342,13.055c27.962,4.066 54.404,8.916 79.425,14.37c27.637,6.025 53.404,13.009 77.483,20.355c37.184,11.341 70.138,23.92 98.634,38c46.708,23.083 81.516,48.925 103.154,75.825c20.071,24.945 29.366,49.608 24.646,71.891c-4.863,22.954 -23.075,42.342 -54.688,55.763c-31.9,13.546 -76.083,21.125 -133.575,19.85c72.708,10.241 126.358,3.554 161.825,-13.163c27.946,-13.171 44.708,-32.958 52.021,-55.633c9.387,-29.092 2.212,-63.992 -21.754,-99.667c-21.909,-32.608 -58.642,-66.029 -110.221,-95.266c-29.971,-16.992 -65.054,-32.646 -105.25,-45.309c-25.55,-8.05 -53.242,-14.687 -82.867,-20.008c-26.454,-4.746 -54.475,-8.388 -84.054,-10.583c-51.487,-3.825 -107.504,-3.909 -168.021,1.058c-75.379,6.179 -157.096,20.341 -245.846,42.737Z"/><path d="M921.488,935.979c-6.821,28.342 -9.113,51.263 -7.875,69.254c1.779,25.813 10.554,43.438 22.62,54.496c15.438,14.146 37.288,19.804 63.6,14.134c51.2,-11.034 125.609,-67.996 184.625,-143.175c87.938,-112.009 144.321,-261.542 39.863,-338.325c76.621,66.72 46.929,171.591 -17.346,262.275c-54.325,76.637 -133.075,143.025 -192.146,165.629c-10.075,3.854 -19.454,6.054 -27.808,6.704c-6.25,0.483 -11.617,-0.138 -15.534,-3.35c-4.745,-3.896 -6.22,-10.967 -7.058,-20.575c-1.246,-14.283 0.521,-32.65 5.75,-55.692c3.138,-13.433 -5.221,-26.891 -18.658,-30.033c-13.438,-3.142 -26.892,5.221 -30.034,18.658Zm-105.083,-435.029c0.704,0.163 3.754,0.896 5.763,1.717c3.895,1.596 8.108,4.05 12.783,7.208c13.308,8.988 28.787,23.604 47.804,43.829c9.463,10.063 19.971,21.196 31.021,34.092l39.117,-31.146c-7.934,-10.879 -15.379,-20.887 -22.763,-29.808c-14.333,-17.321 -27.825,-30.954 -39.837,-41.788c-24.321,-21.941 -44.746,-32.579 -60.334,-35.933c-19.3,-4.15 -34.487,0.287 -46.029,10.379c-14.062,12.296 -24.287,36.933 -23.329,70.629c0.838,29.488 8.496,66.875 21.8,105.967c26.929,79.125 75.179,164.904 125.933,204.967c-30.395,-33.13 -55.304,-88.509 -72.908,-146.717c-10.879,-35.979 -18.417,-72.688 -22.496,-105.75c-3.079,-24.942 -3.712,-47.429 -1.737,-65.442c0.721,-6.608 1.887,-12.441 3.575,-17.375c0.471,-1.375 1.033,-3.529 1.637,-4.829Zm0.034,-0.071c0.45,-0.091 1.566,-0.366 1.32,-0.741c-0.445,-0.663 -0.895,-0.205 -1.321,0.741Z"/></g><path id="TEXT" d="M279.392,1612.9c22.337,-0 33.508,-11.171 33.508,-33.504c0,-22.334 -11.171,-33.509 -33.508,-33.509l-67.013,0l0,67.013l67.013,-0Zm33.508,-134.025c0,-22.338 -11.171,-33.504 -33.508,-33.504l-67.013,-0l0,67.012l67.013,0c22.337,0 33.508,-11.171 33.508,-33.508Zm-33.508,-67.013c44.675,0 67.012,22.338 67.012,67.013c0,22.337 -5.583,39.092 -16.75,50.262c11.171,11.171 16.75,27.921 16.75,50.263c0,44.675 -22.337,67.012 -67.012,67.012l-100.521,0l-0,-234.545l100.521,-0l-0,-0.005Zm210.087,150.78l-34.175,-98.846l-34.179,98.846l68.354,-0Zm11.559,33.508l-91.471,-0l-17.259,50.258l-35.35,0l80.584,-234.041l0.171,-0.505l35.183,0l0.167,0.505l80.583,234.041l-35.35,0l-17.258,-50.258Zm146.925,-150.779l-0,201.037l-33.509,0l0,-201.037l-67.012,-0l-0,-33.509l167.533,0l0,33.509l-67.013,-0Zm201.042,-0l0,201.037l-33.508,0l-0,-201.037l-67.013,-0l0,-33.509l167.534,0l-0,33.509l-67.013,-0Zm100.521,-33.509l33.508,0l0,201.038l100.521,-0l0,33.508l-134.025,0l0,-234.546l-0.004,0Zm201.038,201.038l117.275,-0l-0,33.508l-150.78,0l0,-234.546l150.78,0l-0,33.509l-117.275,-0l-0,50.258l100.52,0l0,33.508l-100.52,0l-0,83.767l-0,-0.004Zm150.779,-0l33.508,-0l0,33.508l-33.508,0l-0,-33.508Zm100.521,-153.458l-0,186.966l-33.509,0l0,-234.546l33.509,0l100.52,100.521l0,-100.521l33.509,0l-0,234.546l-33.509,0l0,-86.446l-100.52,-100.52Zm201.041,153.458l117.271,-0l0,33.508l-150.779,0l-0,-234.546l150.779,0l0,33.509l-117.271,-0l0,50.258l100.521,0l0,33.508l-100.521,0l0,83.767l0,-0.004Zm234.546,-167.529l0,201.037l-33.504,0l-0,-201.037l-67.013,-0l0,-33.509l167.534,0l-0,33.509l-67.017,-0Z"/></svg>