<svg xmlns="http://www.w3.org/2000/svg" viewBox="0 0 500 500"  fill-rule="evenodd" stroke-linejoin="round" stroke-miterlimit="2"><path d="M0 0h500v496H0z" fill="url(#A)" transform="matrix(0 -1 1.00806 0 0 500)"/><path d="M500.043 0h-500v500l500-500z" fill="#fff" fill-opacity=".02"/><text x="114.865" y="243.679" font-family="CarLock, Car Lock" font-size="152" fill="none" stroke="#00a5f8" stroke-width="3.69" transform="matrix(.541749 0 0 .541749 -23.3194 263.124)">b<tspan x="200.216 278.146 367.209" y="243.679 243.679 243.679">att</tspan>le.ne<tspan x="805.099" y="243.679">t</tspan></text><g fill="#00a5f8"><path d="M339.632 88c-20.017 53.768-52.757 91.908-83.748 114.194-20.265 14.572-39.624 22.257-53.862 22.632-6.81.179-12.214-1.369-15.287-5.308-2.838-3.636-3.3-9.072-1.83-16.293 1.997-9.804 7.637-22.323 17.875-37.663l-9.961-6.691c-13.656 20.224-19.933 36.237-20.772 47.94-.826 11.527 3.136 19.52 9.913 24.183 4.319 2.972 9.931 4.664 16.593 4.746 9.425.114 21.201-2.854 34.005-9.225C269.72 208.024 316.738 161.192 339.632 88z"/><path d="M302.204 119.014c-7.462-13.431-14.957-23.263-22.226-29.957-8.493-7.82-16.843-11.543-24.395-12.307-10.054-1.018-19.135 3.019-26.349 11.258-7.053 8.056-12.476 20.387-14.783 35.58-2.405 15.845-1.628 34.867 3.433 54.915 8.751 34.669 30.189 72.499 69.1 102.497-19.898-18.009-34.234-37.947-44.206-58.041-11.87-23.918-17.184-47.997-18.018-69.234-.624-15.898 1.329-30.125 5.36-41.359 3.366-9.382 8.041-16.59 14.079-20.282 5.95-3.639 13.078-3.176 20.888 1.833 4.697 3.012 9.533 7.554 14.573 13.695 3.952 4.815 8.047 10.546 12.136 17.374 1.648 2.872 5.318 3.866 8.19 2.218s3.866-5.318 2.218-8.19z"/><path d="M242.043 119.84c24.074-.403 44.329 4.221 59.664 10.738 13.7 5.821 23.001 13.169 26.955 19.667.996 1.637 1.675 3.067 1.284 4.366-.223.742-.944 1.212-1.853 1.715-1.345.745-3.059 1.35-5.172 1.772l2.158 11.804c10.091-1.77 15.102-6.659 16.601-11.906.915-3.202.731-6.853-1.032-10.591-2.041-4.33-6.25-9.077-12.637-13.313-16.252-10.78-47.109-19.658-85.968-14.252z"/><path d="M146 140a395.07 395.07 0 0 1 59.219-3.186c14.122.295 27.076 1.405 38.962 3.133 6.711.976 13.057 2.14 19.062 3.449 6.633 1.446 12.817 3.122 18.596 4.885 8.924 2.722 16.833 5.741 23.672 9.12 11.21 5.54 19.564 11.742 24.757 18.198 4.817 5.987 7.048 11.906 5.915 17.254-1.167 5.509-5.538 10.162-13.125 13.383-7.656 3.251-18.26 5.07-32.058 4.764 17.45 2.458 30.326.853 38.838-3.159 6.707-3.161 10.73-7.91 12.485-13.352 2.253-6.982.531-15.358-5.221-23.92-5.258-7.826-14.074-15.847-26.453-22.864-7.193-4.078-15.613-7.835-25.26-10.874-6.132-1.932-12.778-3.525-19.888-4.802-6.349-1.139-13.074-2.013-20.173-2.54-12.357-.918-25.801-.938-40.325.254C186.912 131.226 167.3 134.625 146 140z"/><path d="M221.157 224.635c-1.637 6.802-2.187 12.303-1.89 16.621.427 6.195 2.533 10.425 5.429 13.079 3.705 3.395 8.949 4.753 15.264 3.392 12.288-2.648 30.146-16.319 44.31-34.362 21.105-26.882 34.637-62.77 9.567-81.198 18.389 16.013 11.263 41.182-4.163 62.946-13.038 18.393-31.938 34.326-46.115 39.751-2.418.925-4.669 1.453-6.674 1.609-1.5.116-2.788-.033-3.728-.804-1.139-.935-1.493-2.632-1.694-4.938-.299-3.428.125-7.836 1.38-13.366.753-3.224-1.253-6.454-4.478-7.208s-6.454 1.253-7.208 4.478zm-25.22-104.407c.169.039.901.215 1.383.412.935.383 1.946.972 3.068 1.73 3.194 2.157 6.909 5.665 11.473 10.519 2.271 2.415 4.793 5.087 7.445 8.182l9.388-7.475c-1.904-2.611-3.691-5.013-5.463-7.154-3.44-4.157-6.678-7.429-9.561-10.029-5.837-5.266-10.739-7.819-14.48-8.624-4.632-.996-8.277.069-11.047 2.491-3.375 2.951-5.829 8.864-5.599 16.951.201 7.077 2.039 16.05 5.232 25.432 6.463 18.99 18.043 39.577 30.224 49.192-7.295-7.951-13.273-21.242-17.498-35.212-2.611-8.635-4.42-17.445-5.399-25.38-.739-5.986-.891-11.383-.417-15.706.173-1.586.453-2.986.858-4.17.113-.33.248-.847.393-1.159zm.008-.017c.108-.022.376-.088.317-.178-.107-.159-.215-.049-.317.178z"/></g><defs><linearGradient id="A" x1="0" y1="248" x2="500" y2="248" gradientUnits="userSpaceOnUse"><stop offset="0" stop-color="#1f2530"/><stop offset="1" stop-color="#202123"/></linearGradient></defs></svg>