<?xml version="1.0" encoding="UTF-8" standalone="no"?><!DOCTYPE svg PUBLIC "-//W3C//DTD SVG 1.1//EN" "http://www.w3.org/Graphics/SVG/1.1/DTD/svg11.dtd"><svg width="100%" height="100%" viewBox="0 0 500 500" version="1.1" xmlns="http://www.w3.org/2000/svg" xmlns:xlink="http://www.w3.org/1999/xlink" xml:space="preserve" xmlns:serif="http://www.serif.com/" style="fill-rule:evenodd;clip-rule:evenodd;stroke-linejoin:round;stroke-miterlimit:2;"><path id="FG" d="M206.57,85.676l-24.693,-19.834l-101.846,32.406l-71.191,270.984l147.821,73.91l32.497,-58.496l60.842,14.923l60.842,-14.923l32.497,58.496l147.821,-73.91l-71.191,-270.984l-101.846,-32.406l-24.693,19.834l-43.43,-2.802l-43.43,2.802Zm-63.903,262.544l-0,14.176l24.302,12.151l-20.252,36.453l-109.359,-54.679l62.78,-238.969l89.107,-28.352l-2.025,22.277l62.78,-4.051l62.78,4.051l-2.025,-22.277l89.107,28.352l62.78,238.969l-109.359,54.679l-20.252,-36.453l24.302,-12.151l0,-14.176l-107.333,26.327l-107.333,-26.327Zm35.556,-124.174c22.688,0 41.108,18.421 41.108,41.109c0,22.689 -18.42,41.109 -41.108,41.109c-22.689,-0 -41.109,-18.42 -41.109,-41.109c-0,-22.688 18.42,-41.109 41.109,-41.109Zm143.728,0c-22.688,0 -41.108,18.421 -41.108,41.109c-0,22.689 18.42,41.109 41.108,41.109c22.689,-0 41.109,-18.42 41.109,-41.109c0,-22.688 -18.42,-41.109 -41.109,-41.109Zm-143.728,24.302c9.276,0 16.806,7.531 16.806,16.807c0,9.276 -7.53,16.807 -16.806,16.807c-9.276,0 -16.807,-7.531 -16.807,-16.807c-0,-9.276 7.531,-16.807 16.807,-16.807Zm143.728,0c9.276,0 16.807,7.531 16.807,16.807c0,9.276 -7.531,16.807 -16.807,16.807c-9.276,0 -16.807,-7.531 -16.807,-16.807c0,-9.276 7.531,-16.807 16.807,-16.807Z" /></svg>