<svg xmlns="http://www.w3.org/2000/svg" viewBox="0 0 2084 2084" width="100%" height="100%"><path id="GLASS" d="M0 0v2083.33h2083.32V0H0z"/><path id="TEXT" d="M403.435 1481.85v94.553c0 78.794-39.397 118.191-118.191 118.191H167.053v-330.935h118.191c78.794 0 118.191 39.397 118.191 118.191zm-47.277 94.553v-94.553c0-47.276-23.638-70.914-70.914-70.914h-70.915v236.382h70.915c47.276 0 70.914-23.638 70.914-70.915zm94.553-212.743h47.276v330.935h-47.276zm212.744 0c78.794 0 118.191 35.457 118.191 106.372H734.37c0-39.397-23.638-59.095-70.915-59.095s-70.914 15.758-70.914 47.276c0 15.759 31.517 33.881 94.552 54.368s94.553 49.64 94.553 87.461c0 63.036-39.397 94.553-118.191 94.553s-118.191-35.457-118.191-106.372h47.277c0 39.397 23.638 59.096 70.914 59.096s70.915-15.759 70.915-47.277c0-15.759-31.518-33.881-94.553-54.368s-94.553-49.64-94.553-87.461c0-63.035 39.397-94.553 118.191-94.553zm283.659 0c78.794 0 118.191 39.397 118.191 118.191h-47.277c0-47.276-23.638-70.914-70.914-70.914s-70.915 23.638-70.915 70.914v94.553c0 47.277 23.638 70.915 70.915 70.915s70.914-23.638 70.914-70.915h47.277c0 78.794-39.397 118.191-118.191 118.191s-118.191-39.397-118.191-118.191v-94.553c0-78.794 39.397-118.191 118.191-118.191zm212.746 118.19v94.553c0 47.277 23.638 70.915 70.914 70.915s70.915-23.638 70.915-70.915v-94.553c0-47.276-23.638-70.914-70.915-70.914s-70.914 23.638-70.914 70.914zm-47.277 94.553v-94.553c0-78.794 39.397-118.191 118.191-118.191s118.191 39.397 118.191 118.191v94.553c0 78.794-39.397 118.191-118.191 118.191s-118.191-39.397-118.191-118.191zm472.767-94.553c0-47.276-23.639-70.914-70.915-70.914h-70.915v141.829h70.915c47.276 0 70.915-23.638 70.915-70.915zm-70.915-118.191c78.794 0 118.191 39.397 118.191 118.191 0 60.829-23.402 98.178-70.205 112.045l58.15 100.699h-54.605l-54.604-94.553h-67.842v94.553h-47.276v-330.935h118.191zm401.845 118.191v94.553c0 78.794-39.397 118.191-118.191 118.191h-118.192v-330.935h118.192c78.794 0 118.191 39.397 118.191 118.191zm-47.277 94.553v-94.553c0-47.276-23.638-70.914-70.914-70.914h-70.915v236.382h70.915c47.276 0 70.914-23.638 70.914-70.915z" stroke-width="8.33"/><path id="FG" fill-rule="evenodd" stroke-linejoin="round" stroke-miterlimit="2" d="M916.902 990.237l-67.608 118.626L545.47 956.926l146.494-557.724 209.699-66.604 50.63 40.705 89.369-6.254 89.369 6.254 50.63-40.705 209.699 66.604 146.494 557.724-303.824 151.937-67.608-118.626-124.76 30.088-124.76-30.088zm124.944-22.585l-220.974-54.186-.034 29.216 49.994 24.988-41.665 75.004-225-112.487 129.18-491.671 183.315-58.342-4.159 45.842 129.164-8.337 129.167 8.337-4.164-45.842 183.331 58.333 129.166 491.666-224.998 112.501-41.655-74.979 50.006-25.011-.017-29.172-220.657 54.14zM894.003 657.796c46.747 0 84.7 37.953 84.7 84.7s-37.953 84.7-84.7 84.7-84.7-37.952-84.7-84.7 37.952-84.7 84.7-84.7zm0 49.927c19.191 0 34.772 15.582 34.772 34.773s-15.581 34.773-34.772 34.773-34.773-15.581-34.773-34.773 15.581-34.773 34.773-34.773zm294.637-49.927c46.747 0 84.7 37.953 84.7 84.7s-37.953 84.7-84.7 84.7-84.7-37.952-84.7-84.7 37.953-84.7 84.7-84.7zm0 49.927c19.192 0 34.773 15.582 34.773 34.773s-15.581 34.773-34.773 34.773-34.773-15.581-34.773-34.773 15.581-34.773 34.773-34.773z"/></svg>