<svg xmlns="http://www.w3.org/2000/svg" viewBox="0 0 500 500" fill-rule="evenodd" stroke-linejoin="round" stroke-miterlimit="2"><path id="FG" d="M206.57 85.676l-24.693-19.834L80.031 98.248 8.84 369.232l147.821 73.91 32.497-58.496L250 399.569l60.842-14.923 32.497 58.496 147.821-73.91-71.191-270.984-101.846-32.406-24.693 19.834L250 82.874l-43.43 2.802zM142.667 348.22v14.176l24.302 12.151L146.717 411 37.358 356.321l62.78-238.969L189.245 89l-2.025 22.277 62.78-4.051 62.78 4.051L310.755 89l89.107 28.352 62.78 238.969L353.283 411l-20.252-36.453 24.302-12.151V348.22L250 374.547 142.667 348.22zm35.556-124.174c22.688 0 41.108 18.421 41.108 41.109s-18.42 41.109-41.108 41.109-41.109-18.42-41.109-41.109 18.42-41.109 41.109-41.109zm143.728 0c-22.688 0-41.108 18.421-41.108 41.109s18.42 41.109 41.108 41.109 41.109-18.42 41.109-41.109-18.42-41.109-41.109-41.109zm-143.728 24.302c9.276 0 16.806 7.531 16.806 16.807s-7.53 16.807-16.806 16.807-16.807-7.531-16.807-16.807 7.531-16.807 16.807-16.807zm143.728 0c9.276 0 16.807 7.531 16.807 16.807s-7.531 16.807-16.807 16.807-16.807-7.531-16.807-16.807 7.531-16.807 16.807-16.807z"/></svg>