<?xml version="1.0" encoding="UTF-8" standalone="no"?><!DOCTYPE svg PUBLIC "-//W3C//DTD SVG 1.1//EN" "http://www.w3.org/Graphics/SVG/1.1/DTD/svg11.dtd"><svg width="100%" height="100%" viewBox="0 0 500 500" version="1.1" xmlns="http://www.w3.org/2000/svg" xmlns:xlink="http://www.w3.org/1999/xlink" xml:space="preserve" xmlns:serif="http://www.serif.com/" style="fill-rule:evenodd;clip-rule:evenodd;stroke-linejoin:round;stroke-miterlimit:2;"><g id="FG"><path d="M250.062,452.52l-98.012,-35.908l196.023,0l-98.011,35.908Z" /><path d="M247.097,460.612c1.914,0.702 4.015,0.702 5.929,0l98.012,-35.908c3.923,-1.437 6.25,-5.482 5.52,-9.597c-0.73,-4.114 -4.306,-7.112 -8.485,-7.112l-196.023,-0c-4.178,-0 -7.755,2.998 -8.485,7.112c-0.73,4.115 1.597,8.16 5.521,9.597l98.011,35.908Zm2.965,-17.27l-49.437,-18.112c-0,0 98.874,0 98.874,0l-49.437,18.112Z" style="fill:none;"/><path d="M110.428,228.938l0,-54.1c0,-0 49.839,-0 49.839,-0c0.794,-0 1.437,-0.643 1.437,-1.436l-0,-22.79c-0,-0.793 -0.643,-1.436 -1.437,-1.436l-49.839,-0c0,-0 0,-31.311 0,-31.311c0,-0 58.385,-0 58.385,-0c0.794,-0 1.437,-0.643 1.437,-1.437l-0,-22.789c-0,-0.793 -0.643,-1.436 -1.437,-1.436l-76.913,-0c-0.793,-0 -1.436,0.643 -1.436,1.436l-0,159.525c-0,0.793 0.643,1.436 1.436,1.436l76.913,0c0.794,0 1.437,-0.643 1.437,-1.436l-0,-22.789c-0,-0.794 -0.643,-1.437 -1.437,-1.437l-58.385,0Zm-2.873,1.437c0,0.793 0.643,1.436 1.437,1.436l58.385,-0c0,-0 0,19.916 0,19.916c0,0 -74.041,0 -74.041,0c0,0 0,-156.651 0,-156.651c0,-0 74.041,-0 74.041,-0c0,-0 0,19.916 0,19.916c0,0 -58.385,0 -58.385,0c-0.794,0 -1.437,0.643 -1.437,1.436l0,34.184c0,0.794 0.643,1.437 1.437,1.437l49.839,-0c0,-0 0,19.916 0,19.916c0,0 -49.839,0 -49.839,0c-0.794,0 -1.437,0.643 -1.437,1.437l0,56.973Z" /><path d="M228.635,92.203l-42.73,-0c-0.793,-0 -1.436,0.643 -1.436,1.436l0,159.525c0,0.793 0.643,1.436 1.436,1.436l17.092,0c0.794,0 1.437,-0.643 1.437,-1.436l-0,-44.142c-0,-0 24.201,-0 24.201,-0c11.798,-0 21.223,-3.187 28.301,-9.479c10.494,-9.328 15.865,-25.611 15.865,-48.931c0,-23.319 -5.371,-39.603 -15.865,-48.931c-7.078,-6.292 -16.503,-9.478 -28.301,-9.478Zm0,2.873c10.992,-0 19.798,2.89 26.393,8.752c10.017,8.904 14.901,24.525 14.901,46.784c-0,22.259 -4.884,37.88 -14.901,46.784c-6.595,5.862 -15.401,8.753 -26.393,8.753l-25.638,0c-0.793,0 -1.436,0.643 -1.436,1.436l-0,44.142c-0,0 -14.219,0 -14.219,0c-0,0 -0,-156.651 -0,-156.651c-0,-0 41.293,-0 41.293,-0Zm27.074,55.536c0,-14.204 -3.32,-24.106 -9.711,-29.788c-4.344,-3.861 -10.123,-5.832 -17.363,-5.832c0,0 -25.638,0 -25.638,0c-0.793,0 -1.436,0.643 -1.436,1.436l-0,68.368c-0,0.793 0.643,1.436 1.436,1.436l25.638,0c7.24,0 13.019,-1.97 17.363,-5.832c6.391,-5.681 9.711,-15.584 9.711,-29.788Zm-2.872,0c-0,13.144 -2.833,22.384 -8.748,27.641c-3.86,3.431 -9.02,5.107 -15.454,5.107l-24.201,-0c-0,-0 -0,-65.495 -0,-65.495c-0,-0 24.201,-0 24.201,-0c6.434,-0 11.594,1.675 15.454,5.106c5.915,5.258 8.748,14.498 8.748,27.641Z" /><path d="M305.549,254.6c0.793,0 1.436,-0.643 1.436,-1.436l0,-159.525c0,-0.793 -0.643,-1.436 -1.436,-1.436l-17.092,-0c-0.793,-0 -1.437,0.643 -1.437,1.436l0,159.525c0,0.793 0.644,1.436 1.437,1.436l17.092,0Zm-1.437,-2.873l-14.219,0c0,0 0,-140.851 0,-156.651c0,-0 14.219,-0 14.219,-0c0,15.8 0,156.651 0,156.651l0,0Z" /><path d="M365.37,92.203c-11.797,-0 -21.222,3.186 -28.301,9.478c-10.494,9.328 -15.865,25.612 -15.865,48.931l0,45.579c0,23.319 5.371,39.603 15.865,48.931c7.079,6.292 16.504,9.478 28.301,9.478c11.798,0 21.223,-3.186 28.302,-9.478c10.493,-9.328 15.864,-25.612 15.864,-48.931c0,-0.794 -0.643,-1.437 -1.436,-1.437l-17.092,0c-0.793,0 -1.436,0.643 -1.436,1.437c-0,13.143 -2.833,22.383 -8.748,27.641c-3.86,3.431 -9.02,5.106 -15.454,5.106c-6.433,0 -11.593,-1.675 -15.454,-5.106c-5.914,-5.258 -8.747,-14.498 -8.747,-27.641l-0,-45.579c-0,-13.143 2.833,-22.383 8.747,-27.641c3.861,-3.431 9.021,-5.106 15.454,-5.106c6.434,-0 11.594,1.675 15.454,5.106c5.915,5.258 8.748,14.498 8.748,27.641c-0,0.794 0.643,1.437 1.436,1.437l17.092,-0c0.793,-0 1.436,-0.643 1.436,-1.437c0,-23.319 -5.371,-39.603 -15.864,-48.931c-7.079,-6.292 -16.504,-9.478 -28.302,-9.478Zm0,2.873c10.992,-0 19.798,2.89 26.393,8.752c9.8,8.711 14.687,23.852 14.894,45.348c-0,-0 -14.224,-0 -14.224,-0c-0.218,-13.437 -3.526,-22.864 -9.7,-28.352c-4.344,-3.861 -10.123,-5.832 -17.363,-5.832c-7.24,0 -13.018,1.971 -17.362,5.832c-6.392,5.682 -9.712,15.584 -9.712,29.788c0,0 0,45.579 0,45.579c0,14.204 3.32,24.106 9.712,29.788c4.344,3.861 10.122,5.832 17.362,5.832c7.24,-0 13.019,-1.971 17.363,-5.832c6.174,-5.488 9.482,-14.915 9.7,-28.352c0,0 14.224,0 14.224,0c-0.207,21.496 -5.094,36.637 -14.894,45.348c-6.595,5.862 -15.401,8.752 -26.393,8.752c-10.991,0 -19.798,-2.89 -26.392,-8.752c-10.017,-8.904 -14.901,-24.525 -14.901,-46.784c-0,-0 -0,-45.579 -0,-45.579c-0,-22.259 4.884,-37.88 14.901,-46.784c6.594,-5.862 15.401,-8.752 26.392,-8.752Z" /><path d="M133.426,313.853l-0,9.4c-0,4.956 -1.165,8.698 -3.643,11.176c-2.478,2.478 -6.22,3.643 -11.176,3.643c-4.956,-0 -8.697,-1.165 -11.175,-3.643c-2.478,-2.478 -3.643,-6.22 -3.643,-11.176c-0,0 -0,-21.673 -0,-21.673c-0,-4.956 1.165,-8.697 3.643,-11.175c2.478,-2.478 6.219,-3.643 11.175,-3.643c4.956,-0 8.698,1.165 11.176,3.643c0.561,0.561 1.47,0.561 2.031,-0l8.127,-8.128c0.561,-0.561 0.561,-1.47 0,-2.031c-4.746,-4.746 -11.841,-7.193 -21.334,-7.193c-9.492,-0 -16.587,2.447 -21.334,7.193c-4.746,4.747 -7.193,11.841 -7.193,21.334l-0,21.673c-0,9.493 2.447,16.588 7.193,21.334c4.747,4.747 11.842,7.194 21.334,7.194c9.493,-0 16.588,-2.447 21.334,-7.194c4.747,-4.746 7.194,-11.841 7.194,-21.334l-0,-21.673c-0,-0.793 -0.643,-1.436 -1.436,-1.436l-32.51,-0c-0.793,-0 -1.436,0.643 -1.436,1.436l-0,10.837c-0,0.793 0.643,1.436 1.436,1.436l20.237,0Zm2.872,-1.436c0,-0.794 -0.643,-1.437 -1.436,-1.437l-20.237,0c0,0 0,-7.963 0,-7.963c0,-0 29.637,-0 29.637,-0c0,-0 0,20.236 0,20.236c0,8.568 -2.068,15.019 -6.352,19.303c-4.284,4.284 -10.735,6.352 -19.303,6.352c-8.568,0 -15.018,-2.068 -19.302,-6.352c-4.285,-4.284 -6.353,-10.735 -6.353,-19.303c0,0 0,-21.673 0,-21.673c0,-8.568 2.068,-15.019 6.353,-19.303c4.284,-4.284 10.734,-6.352 19.302,-6.352c7.891,0 13.986,1.754 18.247,5.378c-0.001,-0 -6.112,6.111 -6.112,6.111c-2.897,-2.316 -6.93,-3.525 -12.135,-3.525c-5.88,0 -10.266,1.544 -13.206,4.484c-2.941,2.941 -4.485,7.327 -4.485,13.207l0,21.673c0,5.881 1.544,10.267 4.485,13.207c2.94,2.94 7.326,4.484 13.206,4.484c5.881,0 10.267,-1.544 13.207,-4.484c2.94,-2.94 4.484,-7.326 4.484,-13.207c0,0 0,-10.836 0,-10.836Z" /><path d="M173.814,274.191l-26.06,75.686c-0.151,0.439 -0.081,0.924 0.189,1.302c0.269,0.377 0.705,0.602 1.169,0.602l11.433,-0c0.613,-0 1.159,-0.39 1.358,-0.97l5.248,-15.285l27.533,0l5.247,15.285c0.2,0.58 0.745,0.97 1.359,0.97l11.432,-0c0.465,-0 0.9,-0.225 1.17,-0.602c0.269,-0.378 0.34,-0.863 0.188,-1.302l-26.059,-75.686l-0.042,-0.127l-0.001,-0.002l-0.008,-0.023c-0.188,-0.573 -0.728,-0.986 -1.364,-0.986l-11.378,-0c-0.617,0.015 -1.308,0.426 -1.364,0.986c-0.016,0.159 -0.05,0.152 -0.05,0.152Zm11.766,1.734l25.129,72.983c-0,0 -8.394,0 -8.394,0c0,0 -5.247,-15.285 -5.247,-15.285c-0.2,-0.58 -0.745,-0.97 -1.359,-0.97l-29.584,0c-0.613,0 -1.159,0.39 -1.358,0.97l-5.248,15.285c0,0 -8.393,0 -8.393,0l25.128,-72.983l9.326,0Zm6.391,48.765c0.464,-0 0.9,-0.225 1.169,-0.603c0.27,-0.379 0.34,-0.864 0.188,-1.303l-11.053,-31.968c-0.2,-0.579 -0.745,-0.967 -1.358,-0.967c-0.612,0 -1.157,0.388 -1.357,0.967l-11.053,31.968c-0.152,0.439 -0.082,0.924 0.187,1.303c0.27,0.378 0.706,0.603 1.17,0.603l22.107,-0Zm-2.017,-2.873l-18.074,-0c0,-0 9.037,-26.136 9.037,-26.136l9.037,26.136Z" /><path d="M245.665,351.781c0.726,-0 1.326,-0.539 1.423,-1.238c-0.14,0.78 -1.068,1.128 -1.345,1.215l-0.078,0.023c0,-0 -1.02,0.044 -1.363,-0.986l-0.051,-0.152l-13.133,-38.148l-0,37.849c-0,0.794 -0.643,1.437 -1.436,1.437l-10.837,-0c-0.793,-0 -1.436,-0.643 -1.436,-1.437l-0,-75.855c-0,-0.793 0.643,-1.436 1.436,-1.436l12.137,-0c0.613,-0 1.158,0.388 1.358,0.968c-0,-0 19.015,55.122 19.015,55.122l19.014,-55.122c0.2,-0.58 0.745,-0.968 1.358,-0.968l12.137,-0c0.793,-0 1.436,0.643 1.436,1.436l0,75.855c0,0.794 -0.643,1.437 -1.436,1.437l-10.836,-0c-0.794,-0 -1.437,-0.643 -1.437,-1.437c0,0 0,-37.849 0,-37.849l-13.133,38.148l-0.05,0.152c-0.301,0.902 -1.12,0.98 -1.32,0.986l-0.044,-0l-11.379,-0Zm11.379,-0.239l-0,0.001l0.054,0.075l-0.054,-0.076Zm-9.993,-1.577l0.008,0.03l-0.003,-0.009l-0.005,-0.021Zm-0.024,-0.077l0.018,0.058l-0.008,-0.029l-0.01,-0.029Zm8.99,-0.98l-9.325,0l-15.652,-45.465c-0.229,-0.664 -0.903,-1.065 -1.595,-0.95c-0.693,0.116 -1.2,0.715 -1.2,1.417l0,44.998c0,0 -7.964,0 -7.964,0c0,0 0,-72.983 0,-72.983c0,0 9.677,0 9.677,0c0,0 20.039,58.091 20.039,58.091c0.2,0.58 0.745,0.968 1.358,0.968c0.612,0 1.158,-0.388 1.357,-0.968l20.039,-58.091c0,0 9.677,0 9.677,0c-0,0 -0,72.983 -0,72.983c-0,0 -7.964,0 -7.964,0c-0,0 -0,-44.998 -0,-44.998c-0,-0.702 -0.507,-1.301 -1.199,-1.417c-0.693,-0.115 -1.367,0.286 -1.596,0.95l-15.652,45.465Z" /><path d="M306.973,338.072l0,-24.219c0,0 31.074,0 31.074,0c0.793,0 1.436,-0.643 1.436,-1.436l-0,-10.837c-0,-0.793 -0.643,-1.436 -1.436,-1.436l-31.074,-0c0,-0 0,-13.382 0,-13.382c0,-0 36.492,-0 36.492,-0c0.793,-0 1.436,-0.643 1.436,-1.437l0,-10.836c0,-0.793 -0.643,-1.436 -1.436,-1.436l-48.764,-0c-0.794,-0 -1.437,0.643 -1.437,1.436l0,75.855c0,0.794 0.643,1.437 1.437,1.437l48.764,-0c0.793,-0 1.436,-0.643 1.436,-1.437l0,-10.836c0,-0.793 -0.643,-1.436 -1.436,-1.436l-36.492,-0Zm-2.872,1.436c-0,0.793 0.643,1.436 1.436,1.436l36.492,0c-0,0 -0,7.964 -0,7.964c-0,0 -45.892,0 -45.892,0c-0,0 -0,-72.983 -0,-72.983c-0,0 45.892,0 45.892,0c-0,0 -0,7.964 -0,7.964c-0,0 -36.492,0 -36.492,0c-0.793,0 -1.436,0.643 -1.436,1.436l-0,16.255c-0,0.793 0.643,1.437 1.436,1.437l31.073,-0c0,-0 0,7.963 0,7.963c0,0 -31.073,0 -31.073,0c-0.793,0 -1.436,0.643 -1.436,1.437l-0,27.091Z" /><path d="M381.393,273.053c-11.383,-0 -19.307,2.855 -23.86,8.319c-3.084,3.701 -4.668,8.622 -4.668,14.79c0,9.156 7.405,16.454 22.665,21.413c8.484,2.758 14.432,5.303 17.826,7.678c1.008,0.706 1.774,1.383 2.278,2.051c0.358,0.475 0.577,0.92 0.577,1.367c0,6.49 -5.084,9.401 -14.818,9.401c-5.001,-0 -8.772,-0.97 -11.272,-3.054c-2.408,-2.007 -3.547,-5.042 -3.547,-9.056c0,-0.793 -0.643,-1.436 -1.436,-1.436l-10.837,0c-0.793,0 -1.436,0.643 -1.436,1.436c0,8.614 2.463,15.048 7.248,19.355c4.734,4.26 11.812,6.464 21.28,6.464c11.382,-0 19.307,-2.856 23.86,-8.319c3.084,-3.701 4.667,-8.623 4.667,-14.791c0,-9.156 -7.405,-16.454 -22.665,-21.413c-8.484,-2.757 -14.432,-5.303 -17.826,-7.678c-1.008,-0.706 -1.774,-1.383 -2.278,-2.051c-0.358,-0.474 -0.577,-0.919 -0.577,-1.367c0,-6.489 5.084,-9.4 14.819,-9.4c5,-0 8.771,0.97 11.271,3.053c2.408,2.007 3.547,5.043 3.547,9.056c0,0.793 0.643,1.436 1.436,1.436l10.837,0c0.793,0 1.436,-0.643 1.436,-1.436c0,-8.613 -2.463,-15.047 -7.248,-19.354c-4.734,-4.26 -11.812,-6.464 -21.279,-6.464Zm-0,2.872c8.593,0 15.06,1.86 19.357,5.727c3.975,3.578 6.027,8.853 6.273,15.783c-0,-0 -7.984,-0 -7.984,-0c-0.276,-4.301 -1.82,-7.563 -4.536,-9.827c-2.918,-2.431 -7.274,-3.719 -13.11,-3.719c-11.944,0 -17.691,4.311 -17.691,12.273c-0,1.774 1.241,3.784 4.08,5.771c3.542,2.48 9.731,5.179 18.585,8.057c13.639,4.433 20.681,10.498 20.681,18.681c-0,5.391 -1.307,9.717 -4.002,12.952c-4.116,4.939 -11.362,7.285 -21.653,7.285c-8.594,0 -15.061,-1.86 -19.358,-5.727c-3.975,-3.577 -6.027,-8.852 -6.272,-15.782c-0,-0 7.984,-0 7.984,-0c0.276,4.3 1.819,7.563 4.535,9.826c2.918,2.432 7.275,3.719 13.111,3.719c11.943,0 17.691,-4.31 17.691,-12.273c-0,-1.774 -1.242,-3.784 -4.081,-5.771c-3.541,-2.479 -9.73,-5.179 -18.585,-8.057c-13.639,-4.432 -20.68,-10.498 -20.68,-18.681c-0,-5.391 1.306,-9.717 4.001,-12.951c4.117,-4.94 11.363,-7.286 21.654,-7.286Z" /><path d="M456.829,75.162c0,-35.441 -28.773,-64.215 -64.215,-64.215l-285.228,0c-35.442,0 -64.215,28.774 -64.215,64.215l-0,333.457c-0,3.628 2.271,6.867 5.682,8.102l198.211,71.816c1.897,0.687 3.975,0.687 5.872,0l198.211,-71.816c3.411,-1.235 5.682,-4.474 5.682,-8.102l0,-333.457Zm-17.235,0l-0,327.413c-0,0 -165.412,59.932 -189.594,68.694c-21.902,-7.936 -159.775,-57.89 -189.593,-68.694c-0.001,0 -0.001,-327.413 -0.001,-327.413c0,-25.928 21.051,-46.979 46.98,-46.979c-0,0 285.228,0 285.228,0c25.929,0 46.98,21.051 46.98,46.979Z" /></g></svg>