<?xml version="1.0" encoding="UTF-8" standalone="no"?>
<!DOCTYPE svg PUBLIC "-//W3C//DTD SVG 1.1//EN" "http://www.w3.org/Graphics/SVG/1.1/DTD/svg11.dtd">
<svg width="100%" height="100%" viewBox="0 0 500 500" version="1.1" xmlns="http://www.w3.org/2000/svg" xmlns:xlink="http://www.w3.org/1999/xlink" xml:space="preserve" xmlns:serif="http://www.serif.com/" style="fill-rule:evenodd;clip-rule:evenodd;stroke-linejoin:round;stroke-miterlimit:2;">
    <g transform="matrix(6.12323e-17,-1,1.00806,6.17261e-17,7.88861e-31,500)">
        <rect x="0" y="0" width="500" height="496" style="fill:url(#_Linear1);"/>
    </g>
    <g transform="matrix(1,0,0,1,0.0429406,-3.15544e-30)">
        <path d="M500,-0L0,-0L0,500L500,-0Z" style="fill:white;fill-opacity:0.02;"/>
    </g>
    <g transform="matrix(-1.79574,2.19915e-16,-1.45791e-16,-1.19048,718.731,825.524)">
        <path d="M261,365L299,386L223,386L261,365Z" style="fill:rgb(0,165,248);"/>
    </g>
    <g transform="matrix(0.508272,0,0,0.508272,75.7558,128.347)">
        <g>
            <g transform="matrix(0.75,0,0,1,28.6366,0)">
                <path d="M161.371,212.463L270.629,212.463L270.629,243.679L130.155,243.679L130.155,25.164L270.629,25.164L270.629,56.38L161.371,56.38L161.371,103.205L255.021,103.205L255.021,134.422L161.371,134.422L161.371,212.463Z" style="fill:none;fill-rule:nonzero;stroke:rgb(0,165,248);stroke-width:4.45px;"/>
            </g>
            <g transform="matrix(0.75,0,0,1,28.6366,0)">
                <path d="M426.711,103.205C426.711,71.989 411.103,56.38 379.886,56.38L333.062,56.38L333.062,150.03L379.886,150.03C411.103,150.03 426.711,134.422 426.711,103.205ZM379.886,25.164C431.914,25.164 457.928,51.178 457.928,103.205C457.928,155.233 431.914,181.246 379.886,181.246L333.062,181.246L333.062,243.679L301.845,243.679L301.845,25.164L379.886,25.164Z" style="fill:none;fill-rule:nonzero;stroke:rgb(0,165,248);stroke-width:4.45px;"/>
            </g>
            <g transform="matrix(0.75,0,0,1,28.6366,0)">
                <rect x="489.144" y="25.164" width="31.216" height="218.515" style="fill:none;fill-rule:nonzero;stroke:rgb(0,165,248);stroke-width:4.45px;"/>
            </g>
            <g transform="matrix(0.75,0,0,1,28.6366,0)">
                <path d="M629.618,25.164C681.646,25.164 707.659,51.178 707.659,103.205L676.443,103.205C676.443,71.989 660.835,56.38 629.618,56.38C598.402,56.38 582.793,71.989 582.793,103.205L582.793,165.638C582.793,196.854 598.402,212.463 629.618,212.463C660.835,212.463 676.443,196.854 676.443,165.638L707.659,165.638C707.659,217.665 681.646,243.679 629.618,243.679C577.591,243.679 551.577,217.665 551.577,165.638L551.577,103.205C551.577,51.178 577.591,25.164 629.618,25.164Z" style="fill:none;fill-rule:nonzero;stroke:rgb(0,165,248);stroke-width:4.45px;"/>
            </g>
            <path d="M185.102,324.843L155.415,324.843L155.415,310L199.946,310L199.946,339.687C199.946,364.427 187.576,376.796 162.836,376.796C138.097,376.796 125.727,364.427 125.727,339.687L125.727,310C125.727,285.26 138.097,272.89 162.836,272.89C175.206,272.89 184.484,275.983 190.668,282.168L179.536,293.3C175.825,289.589 170.258,287.734 162.836,287.734C147.993,287.734 140.571,295.156 140.571,310L140.571,339.687C140.571,354.531 147.993,361.953 162.836,361.953C177.68,361.953 185.102,354.531 185.102,339.687L185.102,324.843Z" style="fill:none;fill-rule:nonzero;stroke:rgb(0,165,248);stroke-width:3.93px;"/>
            <path d="M263.329,339.687L248.188,295.898L233.047,339.687L263.329,339.687ZM268.45,354.531L227.926,354.531L220.282,376.796L204.622,376.796L240.321,273.113L240.395,272.89L255.981,272.89L256.055,273.113L291.754,376.796L276.094,376.796L268.45,354.531Z" style="fill:none;fill-rule:nonzero;stroke:rgb(0,165,248);stroke-width:3.93px;"/>
            <path d="M314.985,313.191L314.985,376.796L300.141,376.796L300.141,272.89L316.766,272.89L344.672,353.789L372.579,272.89L389.204,272.89L389.204,376.796L374.36,376.796L374.36,313.191L352.54,376.574L352.465,376.796L336.879,376.796L336.805,376.574L314.985,313.191Z" style="fill:none;fill-rule:nonzero;stroke:rgb(0,165,248);stroke-width:3.93px;"/>
            <path d="M418.891,361.953L470.844,361.953L470.844,376.796L404.047,376.796L404.047,272.89L470.844,272.89L470.844,287.734L418.891,287.734L418.891,310L463.422,310L463.422,324.843L418.891,324.843L418.891,361.953Z" style="fill:none;fill-rule:nonzero;stroke:rgb(0,165,248);stroke-width:3.93px;"/>
            <path d="M522.797,272.89C547.537,272.89 559.907,284.023 559.907,306.289L545.063,306.289C545.063,293.919 537.641,287.734 522.797,287.734C507.954,287.734 500.532,292.682 500.532,302.578C500.532,307.526 510.428,313.216 530.219,319.648C550.011,326.08 559.907,335.234 559.907,347.109C559.907,366.901 547.537,376.796 522.797,376.796C498.058,376.796 485.688,365.664 485.688,343.398L500.532,343.398C500.532,355.768 507.954,361.953 522.797,361.953C537.641,361.953 545.063,357.005 545.063,347.109C545.063,342.161 535.167,336.471 515.376,330.039C495.584,323.606 485.688,314.453 485.688,302.578C485.688,282.786 498.058,272.89 522.797,272.89Z" style="fill:none;fill-rule:nonzero;stroke:rgb(0,165,248);stroke-width:3.93px;"/>
        </g>
    </g>
    <g transform="matrix(0.978723,0,0,0.972716,16.0851,8.70285)">
        <path d="M380,122.924C380,100.961 362.278,83.13 340.45,83.13L137.55,83.13C115.722,83.13 98,100.961 98,122.924L98,361.598L239,413L380,361.598L380,122.924Z" style="fill:none;stroke:rgb(0,165,248);stroke-width:12.3px;stroke-linecap:round;stroke-miterlimit:1.5;"/>
    </g>
    <defs>
        <linearGradient id="_Linear1" x1="0" y1="0" x2="1" y2="0" gradientUnits="userSpaceOnUse" gradientTransform="matrix(500,0,0,496,0,248)"><stop offset="0" style="stop-color:rgb(31,37,48);stop-opacity:1"/><stop offset="1" style="stop-color:rgb(32,33,35);stop-opacity:1"/></linearGradient>
    </defs>
</svg>
