<svg xmlns="http://www.w3.org/2000/svg" viewBox="0 0 500 500" fill-rule="evenodd" stroke-linejoin="round" stroke-miterlimit="2"><path id="FG" d="M456.829 75.162c0-35.441-28.773-64.215-64.215-64.215H107.386c-35.442 0-64.215 28.774-64.215 64.215v333.457c0 3.628 2.271 6.867 5.682 8.102l198.211 71.816c1.897.687 3.975.687 5.872 0l198.211-71.816c3.411-1.235 5.682-4.474 5.682-8.102V75.162zm-17.235 0v327.413L250 471.269 60.407 402.575c-.001 0-.001-327.413-.001-327.413 0-25.928 21.051-46.979 46.98-46.979h285.228c25.929 0 46.98 21.051 46.98 46.979zM250.062 452.52l-98.012-35.908h196.023l-98.011 35.908zM134.097 312.417H112.28V301.17h32.726v22.494c0 18.745-9.09 28.117-27.271 28.117s-27.271-9.372-27.271-28.117V301.17c0-18.745 9.09-28.117 27.271-28.117 9.09 0 15.908 2.343 20.453 7.029l-8.181 8.435c-2.727-2.812-6.818-4.217-12.272-4.217-10.909 0-16.363 5.623-16.363 16.87v22.494c0 11.247 5.454 16.87 16.363 16.87s16.362-5.623 16.362-16.87v-11.247zm171.809 28.117h38.18v11.247h-49.089v-78.728h49.089V284.3h-38.18v16.87h32.725v11.247h-32.725v28.117zm76.359-67.481c18.181 0 27.271 8.435 27.271 25.305h-10.908c0-9.372-5.454-14.058-16.363-14.058s-16.362 3.749-16.362 11.246c0 3.749 7.272 8.061 21.817 12.934s21.816 11.81 21.816 20.807c0 14.996-9.09 22.494-27.271 22.494s-27.271-8.435-27.271-25.306h10.909c0 9.373 5.454 14.059 16.362 14.059s16.363-3.749 16.363-11.247c0-3.749-7.272-8.06-21.817-12.934s-21.817-11.809-21.817-20.807c0-14.995 9.09-22.493 27.271-22.493zm-186.916 61.858h-29.781l-5.617 16.87h-11.509l26.235-78.56.055-.168h11.453l.055.168 26.235 78.56h-11.509l-5.617-16.87zm34.198-31.323v48.193h-10.909v-78.728h12.218l20.508 61.295 20.507-61.295h12.218v78.728h-10.908v-48.193l-16.036 48.024-.054.169h-11.454l-.055-.169-16.035-48.024zm-37.962 20.076l-11.127-33.179-11.126 33.179h22.253zM306.053 254.6h-17.247V92.203h17.247V254.6zm-198.342-23.2h60.365v23.2H90.464V92.203h77.612v23.2h-60.365v34.799h51.741v23.2h-51.741V231.4zM366.419 92.203c28.745 0 43.117 19.333 43.117 57.999h-17.247c0-23.2-8.623-34.799-25.87-34.799s-25.871 11.599-25.871 34.799v46.399c0 23.2 8.623 34.799 25.871 34.799s25.87-11.599 25.87-34.799h17.247c0 38.666-14.372 57.999-43.117 57.999s-43.118-19.333-43.118-57.999v-46.399c0-38.666 14.372-57.999 43.118-57.999zm-137.978 0c28.745 0 43.118 19.333 43.118 57.999s-14.373 57.999-43.118 57.999H202.57V254.6h-17.247V92.203h43.118zm25.871 57.999c0-23.2-8.624-34.799-25.871-34.799H202.57v69.598h25.871c17.247 0 25.871-11.599 25.871-34.799z"/></svg>