<svg width="100%" height="100%" viewBox="0 0 2084 2084" xmlns="http://www.w3.org/2000/svg"><path id="GLASS" d="M2083.51,-0l-2083.33,-0l-0,2083.33l2083.33,-2083.33Z"/><g id="FG"><path d="M1041.85,1629.16l-284.325,-104.167l568.651,-0l-284.326,104.167Z" style="stroke-width:0;"/><path d="M1616.67,534.471c-0,-89.016 -72.271,-161.285 -161.285,-161.285l-827.429,0c-89.015,0 -161.286,72.269 -161.286,161.285l0,967.342l575,208.331l575,-208.331l-0,-967.342Z" style="fill:none;"/></g><path id="TEXT" d="M1202.78,1301.32l110.026,0l-0,31.435l-141.463,-0l-0,-220.052l141.463,-0l-0,31.436l-110.026,0l-0,47.155l94.307,0l0,31.435l-94.307,-0l-0,78.591Zm-495.119,-78.591l-62.871,-0l0,-31.435l94.308,0l-0,62.871c-0,52.395 -26.197,78.59 -78.592,78.59c-52.392,-0 -78.589,-26.195 -78.589,-78.59l-0,-62.871c-0,-52.394 26.197,-78.591 78.589,-78.591c26.197,-0 45.846,6.55 58.943,19.649l-23.575,23.575c-7.86,-7.859 -19.649,-11.788 -35.368,-11.788c-31.434,0 -47.153,15.719 -47.153,47.155l0,62.871c0,31.437 15.719,47.155 47.153,47.155c31.437,0 47.155,-15.718 47.155,-47.155l0,-31.436Zm715.171,-110.026c52.394,-0 78.591,23.577 78.591,70.732l-31.436,0c-0,-26.197 -15.719,-39.296 -47.155,-39.296c-31.435,0 -47.153,10.479 -47.153,31.437c-0,10.479 20.958,22.529 62.871,36.151c41.915,13.621 62.873,33.008 62.873,58.157c0,41.915 -26.197,62.871 -78.591,62.871c-52.393,-0 -78.59,-23.576 -78.59,-70.731l31.437,0c-0,26.198 15.718,39.296 47.153,39.296c31.436,0 47.155,-10.479 47.155,-31.436c-0,-10.479 -20.958,-22.53 -62.872,-36.151c-41.915,-13.624 -62.873,-33.008 -62.873,-58.157c0,-41.916 26.197,-62.873 78.59,-62.873Zm-538.656,172.899l-85.822,-0l-16.189,47.153l-33.164,-0l75.603,-219.58l0.157,-0.472l33.008,-0l0.156,0.472l75.604,219.58l-33.165,-0l-16.188,-47.153Zm98.551,-87.55l0,134.703l-31.436,-0l-0,-220.052l35.208,-0l59.1,171.328l59.101,-171.328l35.208,-0l0,220.052l-31.436,-0l-0,-134.703l-46.211,134.233l-0.158,0.47l-33.008,-0l-0.157,-0.47l-46.211,-134.233Zm-109.397,56.113l-32.065,-92.736l-32.066,92.736l64.131,0Zm-240.718,-269.435l173.54,0l0,66.11l-223.122,-0l0,-462.772l223.122,0l0,66.11l-173.54,-0l0,99.166l148.749,-0l0,66.111l-148.749,0l0,165.275Zm743.741,-396.662c82.638,0 123.956,55.093 123.956,165.276l-49.582,-0c-0,-66.11 -24.791,-99.166 -74.374,-99.166c-49.582,-0 -74.375,33.056 -74.375,99.166l0,132.22c0,66.11 24.793,99.166 74.375,99.166c49.583,0 74.374,-33.056 74.374,-99.166l49.582,0c-0,110.183 -41.318,165.276 -123.956,165.276c-82.638,-0 -123.957,-55.093 -123.957,-165.276l0,-132.22c0,-110.183 41.319,-165.276 123.957,-165.276Zm-396.662,0c82.638,0 123.958,55.093 123.958,165.276c-0,110.185 -41.32,165.275 -123.958,165.275l-74.373,-0l-0,132.221l-49.584,-0l0,-462.772l123.957,0Zm223.122,0l-49.582,0l-0,462.772l49.582,-0l-0,-462.772Zm-148.748,165.276c0,-66.11 -24.791,-99.166 -74.374,-99.166l-74.373,-0l-0,198.332l74.373,-0c49.583,-0 74.374,-33.055 74.374,-99.166Z"/></svg>