<svg xmlns="http://www.w3.org/2000/svg" viewBox="0 0 500 500" fill-rule="evenodd" stroke-linejoin="round" stroke-miterlimit="2"><path id="FG" d="M250 5.627c134.873 0 244.373 109.5 244.373 244.373S384.873 494.373 250 494.373 5.627 384.873 5.627 250 115.127 5.627 250 5.627zm192.978 132.957c61.492 106.508 24.945 242.902-81.562 304.394s-242.902 24.945-304.394-81.562-24.945-242.902 81.562-304.394 242.902-24.945 304.394 81.562zM336.864 178.83c-17.833 31.057-51.02 50.271-86.833 50.271-18.534 0-68.501-26.458-75.064-33.846-49.727-55.983-18.059-127.503 20.808-150.66-88.337 47.103-68.353 144.329-53.212 165.632 35.23-1.173 89.381 20.924 100.9 84.044 1.622 10.006 1.616 20.183.323 30.236-9.379 72.89-86.439 96.989-129.658 81.429 70.673 30.615 137.915-12.846 153.875-47.483-20.195-36.118-12.384-74.592.222-96.427 17.453-31.701 50.797-51.804 86.985-51.792 74.58 2.17 95.5 63.056 97.833 75.267-.42-21.003-26.924-100.167-116.179-106.671z"/></svg>