<svg xmlns="http://www.w3.org/2000/svg" viewBox="0 0 500 500"  fill-rule="evenodd" stroke-linecap="round" stroke-linejoin="round" stroke-miterlimit="1.5"><path d="M0 0h500v496H0z" fill="url(#A)" transform="matrix(0 -1 1.00806 0 0 500)"/><path d="M500.043 0h-500v500l500-500z" fill="#fff" fill-opacity=".02"/><g transform="matrix(5.99659 4.5464 -4.5464 5.99659 239.212 -95.1883)" fill="none" stroke="#00a5f8"><path d="M22.5 13.373c7.591 0 13.754 6.163 13.754 13.754 0 5.806-3.576 10.852-8.697 12.793-.152.058-4.206 5.077-5.051 5.383-.413.149.716-4.422-.006-4.422-7.591 0-13.754-6.163-13.754-13.754 0-5.951 3.788-11.025 9.083-12.939.775-.28 3.839-4.745 4.671-4.883.734-.121-.769 4.068 0 4.068z" stroke-width=".399"/><circle cx="250.043" cy="199" r="99" stroke-width="4.75" transform="matrix(.083893 0 0 .083893 1.52314 10.4317)"/></g><path d="M108.17 355.645v22.693c0 11.347 5.673 17.019 17.02 17.019s17.02-5.673 17.02-17.019v-22.693c0-11.346-5.673-17.019-17.02-17.019s-17.02 5.673-17.02 17.019zm-11.346 22.693v-22.693c0-18.91 9.455-28.366 28.366-28.366s28.366 9.455 28.366 28.366v22.693c0 18.91-9.455 28.366-28.366 28.366s-28.366-9.455-28.366-28.366zm113.464-22.693c0-11.346-5.673-17.019-17.019-17.019h-17.02v34.039h17.02c11.346 0 17.019-5.673 17.019-17.02zm-17.019-28.366c18.91 0 28.366 9.455 28.366 28.366 0 14.599-5.617 23.563-16.849 26.891l13.956 24.168h-13.105l-13.105-22.692H176.25v22.692h-11.347V327.28h28.366zm39.712 0h11.347v79.424h-11.347zm68.077 39.712h-22.692v-11.347h34.039v22.693c0 18.91-9.455 28.366-28.366 28.366s-28.366-9.455-28.366-28.366v-22.693c0-18.91 9.455-28.366 28.366-28.366 9.455 0 16.547 2.363 21.274 7.091l-8.51 8.51c-2.837-2.837-7.092-4.255-12.764-4.255-11.347 0-17.02 5.673-17.02 17.019v22.693c0 11.347 5.673 17.019 17.02 17.019s17.019-5.673 17.019-17.019v-11.347zm22.693-39.712h11.347v79.424h-11.347zm34.039 16.112v63.312h-11.347v-79.424h11.347l34.039 34.039v-34.039h11.347v79.424h-11.347V377.43l-34.039-34.039z" fill="none" stroke="#00a5f8" stroke-miterlimit="2" stroke-width="2.003"/><defs><linearGradient id="A" x1="0" y1="248" x2="500" y2="248" gradientUnits="userSpaceOnUse"><stop offset="0" stop-color="#1f2530"/><stop offset="1" stop-color="#202123"/></linearGradient></defs></svg>