<?xml version="1.0" encoding="UTF-8" standalone="no"?>
<!DOCTYPE svg PUBLIC "-//W3C//DTD SVG 1.1//EN" "http://www.w3.org/Graphics/SVG/1.1/DTD/svg11.dtd">
<svg width="100%" height="100%" viewBox="0 0 500 500" version="1.1" xmlns="http://www.w3.org/2000/svg" xmlns:xlink="http://www.w3.org/1999/xlink" xml:space="preserve" xmlns:serif="http://www.serif.com/" style="fill-rule:evenodd;clip-rule:evenodd;stroke-linecap:round;stroke-linejoin:round;stroke-miterlimit:1.5;">
    <rect x="0" y="0" width="500" height="500" style="fill:url(#_Linear1);"/>
    <path d="M500.043,0L0.043,0L0.043,500L500.043,0Z" style="fill:white;fill-opacity:0.02;"/>
    <g>
        <g transform="matrix(1.25,0,0,1.25,-103.75,-80.5)">
            <circle cx="283" cy="208" r="86" style="fill:none;stroke:rgb(0,165,248);stroke-width:2.4px;"/>
        </g>
        <g transform="matrix(1.11694,0,0,1.11694,-13.6015,-14.0562)">
            <g>
                <path d="M85.417,341.284C85.417,336.164 86.009,331.412 87.193,327.028C88.377,322.644 90.201,318.852 92.665,315.652C95.129,312.452 98.265,309.94 102.073,308.116C105.881,306.292 110.409,305.38 115.657,305.38C120.905,305.38 125.417,306.292 129.193,308.116C132.969,309.94 136.089,312.452 138.553,315.652C141.017,318.852 142.841,322.644 144.025,327.028C145.209,331.412 145.801,336.164 145.801,341.284C145.801,346.404 145.209,351.124 144.025,355.444C142.841,359.764 141.017,363.508 138.553,366.676C136.089,369.844 132.969,372.308 129.193,374.068C125.417,375.828 120.905,376.708 115.657,376.708C110.409,376.708 105.881,375.828 102.073,374.068C98.265,372.308 95.129,369.844 92.665,366.676C90.201,363.508 88.377,359.764 87.193,355.444C86.009,351.124 85.417,346.404 85.417,341.284ZM127.945,341.284C127.945,327.332 123.881,320.356 115.753,320.356C107.433,320.356 103.273,327.332 103.273,341.284C103.273,348.26 104.281,353.46 106.297,356.884C108.313,360.308 111.433,362.02 115.657,362.02C123.849,362.02 127.945,355.108 127.945,341.284Z" style="fill:none;fill-rule:nonzero;stroke:rgb(0,165,248);stroke-width:1.79px;stroke-linecap:butt;stroke-miterlimit:2;"/>
                <path d="M155.497,306.724C158.633,306.404 161.529,306.1 164.185,305.812C166.841,305.524 169.641,305.38 172.585,305.38C176.105,305.38 179.625,305.716 183.145,306.388C186.665,307.06 189.801,308.228 192.553,309.892C195.305,311.556 197.545,313.828 199.273,316.708C201.001,319.588 201.865,323.236 201.865,327.652C201.865,330.02 201.593,332.148 201.049,334.036C200.505,335.924 199.801,337.604 198.937,339.076C198.073,340.548 197.113,341.828 196.057,342.916C195.001,344.004 193.961,344.932 192.937,345.7L207.913,375.268C206.377,375.524 204.697,375.716 202.873,375.844C201.049,375.972 199.401,376.036 197.929,376.036C196.649,376.036 195.161,375.972 193.465,375.844C191.769,375.716 190.281,375.524 189.001,375.268L175.369,343.876L176.233,343.396C177.001,343.012 177.849,342.372 178.777,341.476C179.705,340.58 180.569,339.508 181.369,338.26C182.169,337.012 182.841,335.62 183.385,334.084C183.929,332.548 184.201,330.948 184.201,329.284C184.201,326.084 183.305,323.748 181.513,322.276C179.721,320.804 177.513,320.068 174.889,320.068C174.249,320.068 173.705,320.1 173.257,320.164C172.809,320.228 172.521,320.292 172.393,320.356L172.393,375.268C169.001,375.844 166.217,376.132 164.041,376.132C161.673,376.132 158.825,375.844 155.497,375.268L155.497,306.724Z" style="fill:none;fill-rule:nonzero;stroke:rgb(0,165,248);stroke-width:1.79px;stroke-linecap:butt;stroke-miterlimit:2;"/>
                <path d="M223.177,376.132C220.809,376.132 217.961,375.844 214.633,375.268L214.633,306.724C216.361,306.468 217.929,306.276 219.337,306.148C220.745,306.02 221.993,305.956 223.081,305.956C224.233,305.956 225.529,306.02 226.969,306.148C228.409,306.276 229.961,306.468 231.625,306.724L231.625,375.268C228.233,375.844 225.417,376.132 223.177,376.132Z" style="fill:none;fill-rule:nonzero;stroke:rgb(0,165,248);stroke-width:1.79px;stroke-linecap:butt;stroke-miterlimit:2;"/>
                <path d="M279.049,338.212C280.777,337.956 282.313,337.764 283.657,337.636C285.001,337.508 286.249,337.444 287.401,337.444C288.489,337.444 289.801,337.508 291.337,337.636C292.873,337.764 294.377,337.956 295.849,338.212L295.849,373.156C292.073,374.564 288.345,375.492 284.665,375.94C280.985,376.388 277.833,376.612 275.209,376.612C269.577,376.612 264.649,375.732 260.425,373.972C256.201,372.212 252.665,369.764 249.817,366.628C246.969,363.492 244.841,359.748 243.433,355.396C242.025,351.044 241.321,346.308 241.321,341.188C241.321,336.068 242.057,331.316 243.529,326.932C245.001,322.548 247.129,318.756 249.913,315.556C252.697,312.356 256.137,309.86 260.233,308.068C264.329,306.276 268.969,305.38 274.153,305.38C277.225,305.38 280.153,305.604 282.937,306.052C285.721,306.5 288.777,307.428 292.105,308.836C291.977,311.46 291.497,314.02 290.665,316.516C289.833,319.012 288.969,321.124 288.073,322.852C286.793,322.404 285.625,322.02 284.569,321.7C283.513,321.38 282.505,321.124 281.545,320.932C280.585,320.74 279.625,320.596 278.665,320.5C277.705,320.404 276.681,320.356 275.593,320.356C270.409,320.356 266.409,322.1 263.593,325.588C260.777,329.076 259.369,334.276 259.369,341.188C259.369,348.036 260.745,353.14 263.497,356.5C266.249,359.86 270.345,361.54 275.785,361.54C277.001,361.54 278.089,361.444 279.049,361.252L279.049,338.212Z" style="fill:none;fill-rule:nonzero;stroke:rgb(0,165,248);stroke-width:1.79px;stroke-linecap:butt;stroke-miterlimit:2;"/>
                <path d="M314.953,376.132C312.585,376.132 309.737,375.844 306.409,375.268L306.409,306.724C308.137,306.468 309.705,306.276 311.113,306.148C312.521,306.02 313.769,305.956 314.857,305.956C316.009,305.956 317.305,306.02 318.745,306.148C320.185,306.276 321.737,306.468 323.401,306.724L323.401,375.268C320.009,375.844 317.193,376.132 314.953,376.132Z" style="fill:none;fill-rule:nonzero;stroke:rgb(0,165,248);stroke-width:1.79px;stroke-linecap:butt;stroke-miterlimit:2;"/>
                <path d="M334.921,306.724C336.329,306.468 337.609,306.276 338.761,306.148C339.913,306.02 341.033,305.956 342.121,305.956C343.273,305.956 344.473,306.036 345.721,306.196C346.969,306.356 348.041,306.532 348.937,306.724L371.209,344.356L371.209,306.724C372.873,306.468 374.377,306.276 375.721,306.148C377.065,306.02 378.281,305.956 379.369,305.956C380.457,305.956 381.609,306.02 382.825,306.148C384.041,306.276 385.321,306.468 386.665,306.724L386.569,375.268C385.929,375.46 385.001,375.652 383.785,375.844C382.569,376.036 381.257,376.132 379.849,376.132C378.249,376.132 376.809,376.02 375.529,375.796C374.249,375.572 373.321,375.396 372.745,375.268L350.377,337.828L350.377,375.268C347.561,375.844 345.001,376.132 342.697,376.132C340.393,376.132 337.801,375.844 334.921,375.268L334.921,306.724Z" style="fill:none;fill-rule:nonzero;stroke:rgb(0,165,248);stroke-width:1.79px;stroke-linecap:butt;stroke-miterlimit:2;"/>
            </g>
        </g>
    </g>
    <defs>
        <linearGradient id="_Linear1" x1="0" y1="0" x2="1" y2="0" gradientUnits="userSpaceOnUse" gradientTransform="matrix(3.06162e-14,-500,500,3.06162e-14,250,500)"><stop offset="0" style="stop-color:rgb(48,37,31);stop-opacity:1"/><stop offset="1" style="stop-color:rgb(35,33,32);stop-opacity:1"/></linearGradient>
    </defs>
</svg>
