<?xml version="1.0" encoding="UTF-8" standalone="no"?><!DOCTYPE svg PUBLIC "-//W3C//DTD SVG 1.1//EN" "http://www.w3.org/Graphics/SVG/1.1/DTD/svg11.dtd"><svg width="100%" height="100%" viewBox="0 0 500 500" version="1.1" xmlns="http://www.w3.org/2000/svg" xmlns:xlink="http://www.w3.org/1999/xlink" xml:space="preserve" xmlns:serif="http://www.serif.com/" style="fill-rule:evenodd;clip-rule:evenodd;stroke-linejoin:round;stroke-miterlimit:2;"><path id="FG" d="M189.932,464.46c85.749,25.097 181.931,-5.313 239.159,-80.795c74.921,-98.819 55.519,-239.874 -43.301,-314.795c-0.246,-0.187 -0.113,-0.487 -0.023,-0.826c0.205,-0.772 0.657,-1.634 1.269,-2.589c4.456,-6.948 16.718,-17.326 26.428,-26.443c4.832,-4.537 9.058,-8.776 11.54,-12.159c1.489,-2.03 2.381,-3.842 2.644,-5.284c0.43,-2.363 -0.348,-4.151 -2.501,-5.285c-1.702,-0.896 -4.588,-1.34 -8.405,-1.221c-7.684,0.241 -19.665,2.537 -32.793,5.467c-19.359,4.32 -41.26,10.007 -55.267,12.216c-5.493,0.866 -9.653,1.279 -11.74,0.629c-87.817,-27.341 -187.208,1.319 -245.947,78.795c-74.921,98.819 -55.519,239.874 43.3,314.795c0.051,0.039 0.003,0.109 0.003,0.178c-0.001,0.216 -0.041,0.449 -0.102,0.7c-0.327,1.327 -1.207,2.935 -2.431,4.778c-6.571,9.888 -22.736,25.141 -32.783,35.709c-3.61,3.796 -6.455,7.024 -7.901,9.235c-0.899,1.374 -1.318,2.526 -1.39,3.315c-0.075,0.841 0.123,1.527 0.462,2.078c0.377,0.614 0.952,1.117 1.822,1.388c3.079,0.958 10.234,0.675 19.636,-0.566c20.801,-2.746 53.222,-9.769 75.321,-14.57c11.825,-2.569 20.646,-4.505 23,-4.75Zm232.782,-443.803c-0.033,0.163 -0.09,0.413 -0.16,0.59c-0.126,0.318 -0.296,0.656 -0.5,1.012c-1.943,3.388 -6.596,8.023 -12.012,13.108c-8.539,8.017 -18.96,17.024 -24.645,23.92c-2.607,3.162 -4.236,5.999 -4.615,8.164c-0.398,2.276 0.255,4.089 1.988,5.403c96.62,73.254 115.59,211.17 42.336,307.79c-56.019,73.889 -150.211,103.633 -234.114,78.917c-0.262,-0.077 -1.149,-0.162 -2.574,0.062c-3.306,0.52 -11.685,2.341 -22.548,4.701c-21.98,4.775 -54.224,11.768 -74.914,14.499c-6.711,0.886 -12.132,1.38 -15.436,1.103c0.858,-1.234 2.138,-2.763 3.716,-4.519c9.664,-10.761 29.94,-29.434 37.111,-40.66c1.818,-2.846 2.823,-5.33 2.938,-7.191c0.122,-1.979 -0.557,-3.505 -1.969,-4.575c-96.62,-73.254 -115.59,-211.17 -42.337,-307.79c57.433,-75.753 154.613,-103.774 240.476,-77.042c2.488,0.775 7.459,0.568 14.006,-0.464c14.085,-2.221 36.11,-7.931 55.577,-12.275c10.972,-2.449 21.118,-4.464 28.511,-5.135c4.243,-0.386 7.462,-0.447 9.165,0.382Zm-90.1,118.351c-60.109,-45.573 -145.908,-33.771 -191.481,26.338c-45.572,60.109 -33.77,145.909 26.339,191.481c60.108,45.573 145.908,33.771 191.481,-26.338c45.572,-60.109 33.77,-145.909 -26.339,-191.481l0,-0Zm-3.02,3.984c57.91,43.905 69.28,126.566 25.374,184.476c-43.905,57.91 -126.566,69.28 -184.476,25.375c-57.91,-43.905 -69.28,-126.566 -25.375,-184.476c43.906,-57.91 126.567,-69.28 184.477,-25.375l-0,-0Z" /></svg>