<svg width="100%" height="100%" viewBox="0 0 2084 2084" xmlns="http://www.w3.org/2000/svg"><path id="GLASS" d="M2083.51,0l-2083.33,0l0,2083.33l2083.33,-2083.33Z"/><g id="FG"><path d="M1305.57,363.742c189.667,143.799 226.907,414.534 83.108,604.201c-109.985,145.068 -294.922,203.405 -459.644,154.893c-4.896,-1.43 -201.265,47.178 -228.175,38.816c-13.142,-4.101 101.657,-96.924 83.618,-110.601c-189.668,-143.799 -226.907,-414.534 -83.108,-604.201c112.731,-148.69 303.496,-203.711 472.053,-151.229c24.668,7.685 185.807,-45.834 209.209,-33.521c20.632,10.881 -96.275,87.075 -77.061,101.642Z"/><path d="M1202.36,499.865c114.532,86.834 137.019,250.317 50.186,364.849c-86.834,114.532 -250.318,137.019 -364.85,50.185c-114.532,-86.834 -137.019,-250.317 -50.185,-364.849c86.834,-114.532 250.318,-137.019 364.849,-50.185Z"/></g><path id="TEXT" d="M450.708,1481.85l0,94.554c0,47.279 23.638,70.913 70.917,70.913c47.279,-0 70.917,-23.638 70.917,-70.913l-0,-94.554c-0,-47.275 -23.638,-70.912 -70.917,-70.912c-47.279,-0 -70.917,23.637 -70.917,70.912Zm-47.275,94.554l0,-94.554c0,-78.792 39.396,-118.191 118.192,-118.191c78.796,-0 118.192,39.395 118.192,118.191l-0,94.554c-0,78.792 -39.396,118.192 -118.192,118.192c-78.796,-0 -118.192,-39.396 -118.192,-118.192Zm472.767,-94.554c0,-47.275 -23.637,-70.912 -70.912,-70.912l-70.917,-0l-0,141.829l70.917,-0c47.275,-0 70.912,-23.638 70.912,-70.917Zm-70.912,-118.191c78.791,-0 118.191,39.395 118.191,118.191c0,60.829 -23.404,98.179 -70.204,112.046l58.15,100.7l-54.604,0l-54.604,-94.55l-67.842,0l0,94.55l-47.279,0l-0,-330.933l118.192,-0l-0,-0.005Zm165.466,0.001l47.279,-0l0,330.933l-47.279,-0l0,-330.933Zm283.654,165.466l-94.55,0l0,-47.279l141.83,0l-0,94.554c-0,78.792 -39.396,118.192 -118.192,118.192c-78.796,-0 -118.192,-39.396 -118.192,-118.192l0,-94.554c0,-78.792 39.396,-118.192 118.192,-118.192c39.396,0 68.946,9.846 88.642,29.546l-35.459,35.459c-11.821,-11.821 -29.55,-17.73 -53.183,-17.73c-47.279,0 -70.917,23.638 -70.917,70.913l0,94.554c0,47.279 23.638,70.913 70.917,70.913c47.279,-0 70.912,-23.638 70.912,-70.913l0,-47.279l0,0.008Zm94.555,-165.467l47.279,0.001l-0,330.933l-47.279,-0l-0,-330.933Zm141.829,67.133l-0,263.8l-47.279,-0l-0,-330.933l47.279,-0l141.829,141.829l-0,-141.829l47.279,-0l0,330.933l-47.279,-0l-0,-121.971l-141.829,-141.829Z"/></svg>