<svg xmlns="http://www.w3.org/2000/svg" viewBox="0 0 500 500" fill-rule="evenodd" stroke-linejoin="round" stroke-miterlimit="2"><path d="M0 0h500v496H0z" fill="url(#A)" transform="matrix(0 -1 1.00806 0 0 500)"/><path d="M500.043 0h-500v500l500-500z" fill="#fff" fill-opacity=".02"/><g fill="none" stroke="#00a5f8"><path d="M190.432 355.645c0-11.346-5.673-17.019-17.02-17.019h-17.02v34.039h17.02c11.347 0 17.02-5.673 17.02-17.02zm-17.02-28.366c18.911 0 28.366 9.455 28.366 28.366 0 14.599-5.616 23.563-16.849 26.891l13.956 24.168H185.78l-13.105-22.692h-16.282v22.692h-11.346V327.28h28.366zm39.712 0h11.347v79.424h-11.347zm34.039 28.366v22.693c0 11.347 5.673 17.019 17.02 17.019s17.02-5.673 17.02-17.019v-22.693c0-11.346-5.673-17.019-17.02-17.019s-17.02 5.673-17.02 17.019zm-11.346 22.693v-22.693c0-18.91 9.455-28.366 28.366-28.366s28.366 9.455 28.366 28.366v22.693c0 18.91-9.455 28.366-28.366 28.366s-28.366-9.455-28.366-28.366zm96.444-39.712v68.078h-11.347v-68.078h-22.693v-11.347h56.732v11.347h-22.692z" stroke-width="2.003"/><path d="M165.846 223.405h28.421l-8.592-112.848-40.628 13.375 20.799 99.474zm44.303 0h27.585l-3.932-127.921-47.991 15.072 24.338 112.848zm44.304 0h31.765l9.573-147.121-61.868 19.2 20.53 127.921zm50.154 0h38.452l11.896-165.511-58.478 18.39 8.13 147.121zm36.78 18.39l-4.18 41.796-81.084-20.898-9.195-23.406 94.458 2.508z" stroke-miterlimit="3" stroke-width="3.001"/></g><defs><linearGradient id="A" x1="0" y1="248" x2="500" y2="248" gradientUnits="userSpaceOnUse"><stop offset="0" stop-color="#1f2530"/><stop offset="1" stop-color="#202123"/></linearGradient></defs></svg>