<?xml version="1.0" encoding="UTF-8" standalone="no"?><!DOCTYPE svg PUBLIC "-//W3C//DTD SVG 1.1//EN" "http://www.w3.org/Graphics/SVG/1.1/DTD/svg11.dtd"><svg width="100%" height="100%" viewBox="0 0 500 500" version="1.1" xmlns="http://www.w3.org/2000/svg" xmlns:xlink="http://www.w3.org/1999/xlink" xml:space="preserve" xmlns:serif="http://www.serif.com/" style="fill-rule:evenodd;clip-rule:evenodd;stroke-linejoin:round;stroke-miterlimit:2;"><path id="FG" d="M431.54,394.96c0.073,-0.725 -0.16,-1.448 -0.642,-1.995c-0.482,-0.548 -1.17,-0.869 -1.899,-0.889l-197.683,-5.248c-0.88,-0.023 -1.713,0.396 -2.218,1.117c-0.506,0.72 -0.616,1.646 -0.294,2.466l19.243,48.983c0.308,0.783 0.973,1.372 1.788,1.582l169.692,43.735c0.741,0.191 1.529,0.049 2.157,-0.39c0.628,-0.438 1.033,-1.129 1.109,-1.89l8.747,-87.471Zm-5.503,2.288l-8.162,81.617c0,0 -149.893,-38.632 -165.433,-42.637c0,-0 -17.304,-44.049 -17.304,-44.049c-0,0 190.899,5.069 190.899,5.069l0,-0Zm-91.817,-351.455c-0.483,-0.137 -1.002,-0.135 -1.495,0.018l-129.115,40.07c-0.209,0.013 -0.418,0.051 -0.622,0.115l-100.064,31.426c-0.234,0.011 -0.466,0.054 -0.693,0.128l-85.026,27.991c-1.269,0.418 -2.021,1.722 -1.748,3.029l43.529,208.18c0.254,1.216 1.326,2.087 2.568,2.087l59.48,-0c0.73,-0 1.428,-0.305 1.925,-0.841c0.496,-0.536 0.747,-1.254 0.691,-1.983l-15.221,-199.914l43.278,200.667c0.261,1.208 1.329,2.071 2.566,2.071l57.73,-0c0.71,-0 1.389,-0.288 1.884,-0.798c0.494,-0.509 0.761,-1.198 0.739,-1.907l-7.034,-228.849l36.808,229.345c0.204,1.273 1.302,2.209 2.591,2.209l66.477,-0c1.383,-0 2.529,-1.074 2.619,-2.454l17.98,-276.316l15.268,276.29c0.077,1.391 1.227,2.48 2.62,2.48l80.473,-0c1.376,-0 2.519,-1.064 2.617,-2.436l24.896,-346.382c0.062,-0.867 -0.309,-1.708 -0.99,-2.247c-0.682,-0.539 -1.586,-0.705 -2.415,-0.445l-122.316,38.466Zm20.218,307.795l-16.765,-303.379c-0,-0 116.756,-36.718 116.756,-36.718c0,0 -24.443,340.097 -24.443,340.097l-75.548,0Zm-198.047,0l-49.985,-231.759c0,0 94.852,-29.788 94.852,-29.788c-0,-0 8.039,261.547 8.039,261.547l-52.906,0Zm92.837,0c-3.878,-24.159 -38.341,-238.892 -42.252,-263.257c0,0 123.661,-38.377 123.661,-38.377c-0,0 -17.753,272.824 -19.628,301.634l-61.781,0Zm-185.542,0l-42.612,-203.796c0,0 79.615,-26.209 79.615,-26.209c0,0 17.513,230.005 17.513,230.005l-54.516,0Z" /></svg>