<svg width="100%" height="100%" viewBox="0 0 2084 2084" version="1.1" xmlns="http://www.w3.org/2000/svg"><path id="GLASS" d="M2083.51,0l-2083.33,0l0,2083.33l2083.33,-2083.33Z"/><path id="FG" d="M691.025,930.854l118.421,0l-35.8,-470.2l-169.284,55.729l86.663,414.475l0,-0.004Zm184.596,0l114.937,0l-16.383,-533.004l-199.962,62.8l101.408,470.2l-0,0.004Zm184.6,0l132.354,0l39.888,-613.004l-257.784,80l85.542,533.004Zm208.975,0l160.217,0l49.566,-689.629l-243.658,76.625l33.875,613.004Zm153.25,76.625l-17.417,174.15l-337.85,-87.075l-38.312,-97.525l393.575,10.45l0.004,0Z"/><path id="TEXT" d="M793.467,1481.85c-0,-47.275 -23.638,-70.912 -70.917,-70.912l-70.917,-0l0,141.829l70.917,-0c47.279,-0 70.917,-23.638 70.917,-70.917Zm-70.917,-118.191c78.796,-0 118.192,39.395 118.192,118.191c-0,60.829 -23.4,98.179 -70.205,112.046l58.15,100.7l-54.604,0l-54.604,-94.55l-67.841,0l-0,94.55l-47.275,0l-0,-330.933l118.191,-0l-0.004,-0.005Zm165.467,0.001l47.279,-0l-0,330.933l-47.279,-0l-0,-330.933Zm141.829,118.191l-0,94.554c-0,47.279 23.637,70.913 70.917,70.913c47.279,-0 70.916,-23.638 70.916,-70.913l0,-94.554c0,-47.275 -23.637,-70.912 -70.916,-70.912c-47.28,-0 -70.917,23.637 -70.917,70.912Zm-47.275,94.554l-0,-94.554c-0,-78.792 39.396,-118.191 118.192,-118.191c78.795,-0 118.191,39.395 118.191,118.191l0,94.554c0,78.792 -39.396,118.192 -118.192,118.192c-78.795,-0 -118.191,-39.396 -118.191,-118.192Zm401.85,-165.466l-0,283.658l-47.279,0l-0,-283.658l-94.554,-0l-0,-47.279l236.383,-0l-0,47.279l-94.55,-0Z"/></svg>