<?xml version="1.0" encoding="UTF-8" standalone="no"?><!DOCTYPE svg PUBLIC "-//W3C//DTD SVG 1.1//EN" "http://www.w3.org/Graphics/SVG/1.1/DTD/svg11.dtd"><svg width="100%" height="100%" viewBox="0 0 500 500" version="1.1" xmlns="http://www.w3.org/2000/svg" xmlns:xlink="http://www.w3.org/1999/xlink" xml:space="preserve" xmlns:serif="http://www.serif.com/" style="fill-rule:evenodd;clip-rule:evenodd;stroke-linejoin:round;stroke-miterlimit:2;"><path id="FG" d="M415.886,253.521l0.126,4.236l-0.128,-4.236c-10.195,0.615 -19.99,3.336 -28.938,8.081c0,0 -215.686,-88.392 -215.686,-88.392c-6.296,-39.491 -40.474,-68.921 -80.805,-68.921c-45.161,0 -81.892,36.732 -81.892,81.893c-0,45.161 36.731,81.893 81.892,81.893c15.934,-0 31.077,-4.704 44.308,-13.285c-0,-0 216.797,88.858 216.797,88.858c0.012,0.066 0.027,0.132 0.046,0.199c8.599,30.529 36.805,51.864 68.575,51.864c39.29,-0 71.256,-31.967 71.256,-71.257c0,-1.918 -0.132,-3.815 -0.283,-5.7c-2.818,-35.251 -33.009,-67.754 -75.268,-65.233Zm0.253,4.233c39.74,-2.371 68.139,28.188 70.788,61.338c0.142,1.773 0.27,3.558 0.27,5.362c0,36.952 -30.064,67.016 -67.016,67.016c-29.851,0 -56.359,-20.026 -64.478,-48.721c-0.002,-0.154 -0.01,-0.662 -0.06,-0.943l-0.203,-1.15l-221.147,-90.641l-0.938,0.625c-12.754,8.51 -27.433,13.194 -42.9,13.194c-42.823,0 -77.652,-34.829 -77.652,-77.652c-0,-42.823 34.829,-77.652 77.652,-77.652c38.629,-0 71.304,28.471 76.791,66.489l0.173,1.199l219.784,90.072l0.888,-0.487c8.638,-4.742 18.142,-7.452 28.048,-8.049Zm4.042,116.684c27.558,-0 49.984,-22.426 49.984,-49.984c-0,-27.557 -22.426,-49.983 -49.984,-49.983c-0.65,-0 -1.278,0.117 -1.928,0.128l-10.291,0.171l16.902,6.941c20.628,8.469 30.533,32.129 22.074,52.756l-0.001,0.001c-4.083,9.985 -11.823,17.786 -21.777,21.95l-0.001,0c-5.034,2.113 -10.329,3.165 -15.614,3.165c-5.195,-0 -10.39,-1.012 -15.333,-3.033c0,-0 -18.102,-7.421 -18.102,-7.421l5.137,6.402c9.297,11.585 23.451,18.907 38.934,18.907Zm11.004,-94.388c19.925,4.941 34.74,22.978 34.74,44.404c-0,25.22 -20.524,45.744 -45.744,45.744c-10.568,-0 -20.455,-3.736 -28.329,-10.034c0.001,0.001 0.754,0.31 0.754,0.31c5.461,2.233 11.2,3.349 16.939,3.349c5.84,-0 11.691,-1.16 17.252,-3.494c10.999,-4.601 19.553,-13.222 24.064,-24.254c8.676,-21.158 -0.134,-45.203 -19.676,-56.025Zm-354.925,-72.218l324.408,132.964c11.977,4.913 25.627,-0.831 30.506,-12.773c2.373,-5.789 2.35,-12.139 -0.06,-17.905c-2.409,-5.766 -6.923,-10.246 -12.713,-12.621l-324.398,-132.954c-11.916,-4.888 -25.613,0.862 -30.525,12.779l-0.001,0.003c-4.878,11.921 0.853,25.618 12.783,30.507l-0,-0Zm326.016,129.041l-324.408,-132.965c-9.767,-4.002 -14.46,-15.215 -10.468,-24.972c4.023,-9.758 15.236,-14.473 24.995,-10.47l324.397,132.955c4.74,1.944 8.437,5.611 10.41,10.332c1.973,4.721 1.992,9.922 0.048,14.662l-0.001,0.002c-3.993,9.777 -15.168,14.478 -24.973,10.456Zm-311.821,-90.071c6.492,-0 12.808,-1.036 18.815,-2.998l5.48,-1.79l-44.954,-18.428c-20.617,-8.459 -30.522,-32.118 -22.084,-52.735c8.47,-20.606 32.129,-30.521 52.746,-22.083c0,0 47.948,19.648 47.948,19.648l-1.854,-4.644c-8.983,-22.508 -30.822,-38.21 -56.097,-38.21c-33.418,0 -60.62,27.202 -60.62,60.62c0,33.418 27.202,60.62 60.62,60.62Zm0,-4.24c-31.08,-0 -56.38,-25.299 -56.38,-56.38c0,-31.081 25.3,-56.38 56.38,-56.38c21.673,0 40.624,12.425 49.995,30.772c-0.001,-0.001 -38.385,-15.73 -38.385,-15.73c-22.779,-9.323 -48.918,1.63 -58.275,24.397l-0.001,0.001c-9.324,22.781 1.618,48.921 24.397,58.267l33.807,13.858c-3.753,0.787 -7.611,1.195 -11.538,1.195Z" /></svg>