<svg xmlns="http://www.w3.org/2000/svg" viewBox="0 0 500 500" fill-rule="evenodd" stroke-linejoin="round" stroke-miterlimit="2"><path id="FG" d="M349.17 345.781c9.304 31.132 38.347 52.809 71.011 52.809 40.878 0 74.136-33.258 74.136-74.136 0-1.995-.135-3.969-.292-5.929-2.932-36.678-34.341-70.502-78.311-67.879l.298 9.991-.301-9.991c-10.154.613-19.924 3.234-28.907 7.786l-212.971-87.28c-7.176-40.072-42.175-69.742-83.378-69.742-46.749 0-84.772 38.023-84.772 84.772s38.023 84.772 84.772 84.772c15.985 0 31.204-4.567 44.596-12.934l214.119 87.761zm67.141-85.153c38.029-2.268 65.21 26.97 67.746 58.694.135 1.697.26 3.405.26 5.132 0 35.364-28.772 64.136-64.136 64.136-28.459 0-53.744-19.018-61.616-46.314-.013-.307-.04-.709-.086-.971l-.479-2.712-224.032-91.824-2.211 1.476c-12.28 8.193-26.41 12.709-41.302 12.709-41.234 0-74.772-33.537-74.772-74.772s33.538-74.772 74.772-74.772c37.195 0 68.657 27.414 73.941 64.02l.408 2.829 222.579 91.217 2.093-1.149c8.264-4.536 17.357-7.126 26.835-7.699zm3.87 116.69c29.146 0 52.864-23.718 52.864-52.864s-23.718-52.863-52.864-52.863c-.666 0-1.31.117-1.976.128l-24.268.405 29.833 12.251c19.159 7.866 28.36 29.841 20.503 48.999l-.001.003c-3.792 9.273-10.98 16.518-20.223 20.384l-.003.001c-4.676 1.962-9.593 2.941-14.501 2.941-4.826 0-9.651-.941-14.242-2.819l-28.418-11.649 12.116 15.098c9.832 12.252 24.806 19.985 41.18 19.985zm29.012-84.385c8.354 12.687 10.518 29.15 4.333 44.233-4.803 11.744-13.908 20.921-25.616 25.819-4.979 2.09-10.178 3.294-15.405 3.621 2.499.468 5.065.712 7.676.712 23.632 0 42.864-19.232 42.864-42.864 0-12.451-5.339-23.681-13.852-31.521zM75.168 210.496l324.408 132.965c13.452 5.518 28.783-.935 34.263-14.348 2.665-6.5 2.638-13.631-.067-20.105s-7.776-11.509-14.278-14.175L95.095 161.878c-13.381-5.489-28.763.964-34.279 14.347l-.003.006c-5.48 13.392.956 28.775 14.355 34.265h0zm328.201 123.713L78.96 201.243c-8.297-3.4-12.285-12.924-8.896-21.213 3.42-8.29 12.946-12.301 21.238-8.899l324.397 132.954c4.028 1.652 7.17 4.767 8.846 8.778s1.692 8.431.04 12.46l-.001.003c-3.393 8.308-12.886 12.299-21.215 8.883zM90.455 249.682c6.801 0 13.416-1.085 19.709-3.14l12.926-4.222-52.201-21.399c-19.148-7.856-28.348-29.828-20.512-48.977 7.868-19.139 29.841-28.348 48.99-20.51l54.231 22.222-4.371-10.951c-9.411-23.58-32.294-40.023-58.772-40.023-35.006 0-63.5 28.494-63.5 63.5s28.494 63.5 63.5 63.5zm-.168-10.001c-29.416-.09-53.332-24.062-53.332-53.499 0-29.493 24.007-53.5 53.5-53.5 17.528 0 33.177 8.57 42.921 21.881-.001-.001-30.219-12.384-30.219-12.384-24.247-9.924-52.071 1.733-62.031 25.967l-.001.003c-9.926 24.251 1.721 52.075 25.968 62.024l23.194 9.508z"/></svg>