<svg xmlns="http://www.w3.org/2000/svg" viewBox="0 0 500 500"  fill-rule="evenodd" stroke-linecap="round" stroke-miterlimit="5" xmlns:v="https://vecta.io/nano"><path d="M0 0v500h500V0H0z" fill="url(#A)"/><path d="M500.043 0h-500v500l500-500z" fill="#fff" fill-opacity=".02"/><g fill="none" stroke="#00a5f8"><path d="M367.454 198.875c-7.232.437-14.17 2.416-20.477 5.877l-154.041-63.129c-3.988-27.632-27.738-48.327-55.814-48.327-31.124 0-56.439 25.315-56.439 56.44s25.315 56.439 56.439 56.439c11.242 0 21.913-3.402 31.184-9.587L323.265 260.1c.046.256-.015.505.061.76 5.907 20.973 25.269 35.617 47.077 35.617 26.971 0 48.914-21.943 48.914-48.914 0-1.317-.092-2.619-.195-3.913-1.934-24.197-22.661-46.505-51.668-44.775zm-239.806-35.21a15.08 15.08 0 0 1-8.226-19.626c3.161-7.668 11.973-11.371 19.641-8.225l229.512 94.065a14.95 14.95 0 0 1 8.217 19.641c-3.138 7.683-11.92 11.378-19.625 8.217l-229.519-94.072zm9.474 27.459c-22.817 0-41.389-18.572-41.389-41.388s18.572-41.389 41.389-41.389c17.255 0 32.163 10.723 38.296 26.09l-30.651-12.56c-15.351-6.283-32.968 1.099-39.274 16.443-6.283 15.351 1.091 32.968 16.443 39.266l28.031 11.491a41.26 41.26 0 0 1-12.845 2.047zm233.281 90.303c-10.49 0-20.077-4.967-26.375-12.816l7.434 3.048a30.12 30.12 0 0 0 11.416 2.258c3.936 0 7.879-.783 11.627-2.356 7.412-3.1 13.176-8.91 16.216-16.345 6.299-15.358-1.076-32.975-16.435-39.281l-5.222-2.145c.451-.007.888-.09 1.339-.09 18.67 0 33.864 15.193 33.864 33.863s-15.194 33.864-33.864 33.864z" stroke-width="3"/><path d="M115.305 327.279c18.911 0 28.366 8.51 28.366 25.529h-11.346c0-9.455-5.674-14.182-17.02-14.182s-17.019 3.782-17.019 11.346c0 3.782 7.564 8.131 22.692 13.048s22.693 11.914 22.693 20.991c0 15.128-9.455 22.693-28.366 22.693s-28.366-8.51-28.366-25.53h11.347c0 9.456 5.673 14.183 17.019 14.183s17.02-3.782 17.02-11.346c0-3.782-7.565-8.132-22.693-13.048s-22.693-11.914-22.693-20.991c0-15.129 9.456-22.693 28.366-22.693zm68.078 11.347v68.078h-11.346v-68.078h-22.693v-11.347h56.732v11.347h-22.693zm45.386 56.731h39.712v11.347h-51.059v-79.425h51.059v11.347h-39.712v17.019h34.039v11.346h-34.039v28.366zm88.161-17.019l-11.574-33.472-11.573 33.472h23.147zm3.914 11.346h-30.975l-5.844 17.02h-11.97l27.288-79.255.057-.17h11.913l.057.17 27.288 79.255h-11.971l-5.843-17.02zm35.571-31.6v48.62h-11.346v-79.425h12.707l21.332 61.838 21.331-61.838h12.708v79.425H401.8v-48.62l-16.679 48.449-.057.171h-11.913l-.057-.171-16.679-48.449z" stroke-width="2" stroke-linejoin="round" stroke-miterlimit="2"/></g><defs><linearGradient id="A" x1="250" y1="500" x2="250" y2="0" gradientUnits="userSpaceOnUse"><stop offset="0" stop-color="#1f2530"/><stop offset="1" stop-color="#202123"/></linearGradient></defs></svg>