<svg width="100%" height="100%" viewBox="0 0 2084 2084" version="1.1" xmlns="http://www.w3.org/2000/svg"><path id="GLASS" d="M2083.51,0l-2083.33,0l0,2083.33l2083.33,-2083.33Z"/><path id="FG" d="M1531.06,828.646c-30.133,1.821 -59.041,10.067 -85.32,24.487l-641.838,-263.037c-16.617,-115.133 -115.575,-201.363 -232.558,-201.363c-129.684,0 -235.163,105.48 -235.163,235.167c0,129.688 105.479,235.163 235.163,235.163c46.841,-0 91.304,-14.175 129.933,-39.946l645.662,264.633c0.192,1.067 -0.062,2.104 0.255,3.167c24.612,87.387 105.287,148.404 196.154,148.404c112.379,-0 203.808,-91.429 203.808,-203.808c0,-5.488 -0.383,-10.913 -0.812,-16.305c-8.059,-100.82 -94.421,-193.77 -215.284,-186.562Zm-999.191,-146.708c-31.778,-13.087 -47.225,-49.942 -34.275,-81.776c13.17,-31.95 49.887,-47.379 81.837,-34.27l956.3,391.937c23.551,9.465 39.063,32.418 39.063,57.799c-0,8.253 -1.64,16.425 -4.825,24.039c-13.075,32.012 -49.667,47.408 -81.771,34.237l-956.329,-391.967Zm39.475,114.413c-95.071,-0 -172.455,-77.383 -172.455,-172.45c0,-95.067 77.384,-172.454 172.455,-172.454c71.895,-0 134.012,44.679 159.566,108.708l-127.712,-52.333c-63.963,-26.179 -137.367,4.579 -163.642,68.512c-26.179,63.963 4.546,137.367 68.513,163.609l116.795,47.879c-17.276,5.655 -35.341,8.534 -53.52,8.529Zm972.004,376.262c-43.709,0 -83.654,-20.695 -109.896,-53.399l30.975,12.7c15.093,6.198 31.251,9.394 47.567,9.408c16.4,-0 32.829,-3.263 48.445,-9.817c30.884,-12.917 54.9,-37.125 67.567,-68.104c26.246,-63.992 -4.483,-137.396 -68.479,-163.671l-21.758,-8.937c1.879,-0.029 3.7,-0.375 5.579,-0.375c77.792,-0 141.1,63.304 141.1,141.096c-0,77.791 -63.308,141.1 -141.1,141.1Z"/><path id="TEXT" d="M480.438,1363.66c78.795,-0 118.191,35.458 118.191,106.37l-47.275,0c0,-39.395 -23.642,-59.091 -70.917,-59.091c-47.274,-0 -70.912,15.758 -70.912,47.275c0,15.758 31.517,33.879 94.55,54.366c63.033,20.488 94.554,49.642 94.554,87.463c0,63.033 -39.396,94.554 -118.191,94.554c-78.796,-0 -118.192,-35.458 -118.192,-106.375l47.279,-0c0,39.4 23.638,59.096 70.913,59.096c47.274,-0 70.916,-15.759 70.916,-47.275c0,-15.758 -31.521,-33.884 -94.554,-54.367c-63.033,-20.483 -94.554,-49.642 -94.554,-87.462c-0,-63.038 39.4,-94.554 118.192,-94.554Zm283.658,47.279l-0,283.658l-47.275,0l-0,-283.658l-94.554,-0l-0,-47.279l236.383,-0l-0,47.279l-94.554,-0Zm189.108,236.379l165.467,-0l-0,47.279l-212.746,0l-0,-330.938l212.746,0.001l-0,47.279l-165.467,-0l0,70.912l141.829,0l0,47.275l-141.829,0l0,118.192Zm367.338,-70.913l-48.225,-139.466l-48.221,139.466l96.446,0Zm16.308,47.275l-129.063,0l-24.35,70.917l-49.875,0l113.7,-330.229l0.238,-0.708l49.637,-0l0.238,0.708l113.7,330.229l-49.879,0l-24.346,-70.917Zm148.212,-131.666l0,202.583l-47.275,-0l0,-330.938l52.946,0l88.884,257.659l88.879,-257.659l52.95,0l-0,330.938l-47.279,-0l-0,-202.583l-69.496,201.87l-0.238,0.713l-49.637,-0l-0.238,-0.713l-69.495,-201.87Z"/></svg>