<svg xmlns="http://www.w3.org/2000/svg" viewBox="0 0 500 500"  fill-rule="evenodd" stroke-linejoin="round" stroke-miterlimit="2"><path d="M0 0h500v496H0z" fill="url(#A)" transform="matrix(0 -1 1.00806 0 0 500)"/><path d="M500.043 0h-500v500l500-500z" fill="#fff" fill-opacity=".02"/><g fill="none" stroke="#00a5f8"><path d="M42.929 378.338v-51.059h11.346v51.059c0 11.347 5.673 17.019 17.02 17.019s17.02-5.673 17.02-17.019v-51.059h11.346v51.059c0 18.91-9.455 28.366-28.366 28.366s-28.366-9.455-28.366-28.366zm102.117 17.019c7.564 0 11.347-3.782 11.347-11.346s-3.782-11.347-11.347-11.347h-22.692v22.692h22.692zm11.347-45.385c0-7.564-3.782-11.346-11.347-11.346h-22.692v22.692h22.692c7.564 0 11.347-3.782 11.347-11.347zm-11.347-22.692c15.129 0 22.693 7.564 22.693 22.692 0 7.564-1.891 13.238-5.673 17.02 3.782 3.782 5.673 9.455 5.673 17.02 0 15.128-7.564 22.692-22.693 22.692h-34.039V327.28h34.039zm34.04-.001h11.347v79.424h-11.347zm51.058 0c18.91 0 28.366 8.51 28.366 25.529h-11.347c0-9.455-5.673-14.182-17.019-14.182s-17.02 3.782-17.02 11.346c0 3.782 7.564 8.132 22.692 13.049s22.693 11.914 22.693 20.991c0 15.128-9.455 22.692-28.366 22.692s-28.366-8.51-28.366-25.529h11.347c0 9.455 5.673 14.182 17.02 14.182s17.019-3.782 17.019-11.346c0-3.782-7.564-8.132-22.692-13.049s-22.693-11.914-22.693-20.991c0-15.128 9.455-22.692 28.366-22.692zm51.058 28.366v22.693c0 11.347 5.673 17.019 17.02 17.019s17.02-5.673 17.02-17.019v-22.693c0-11.346-5.673-17.019-17.02-17.019s-17.02 5.673-17.02 17.019zm-11.346 22.693v-22.693c0-18.91 9.455-28.366 28.366-28.366s28.366 9.455 28.366 28.366v22.693c0 18.91-9.455 28.366-28.366 28.366s-28.366-9.455-28.366-28.366zm119.137-51.059v11.347H349.28v17.019h39.712v11.347H349.28v39.712h-11.347V327.28h51.059zm45.385 11.347v68.078h-11.347v-68.078h-22.692v-11.347h56.732v11.347h-22.693z" stroke-width="2.003"/><circle cx="250.043" cy="199" r="99" stroke-width="3.07" transform="matrix(.778842 .59049 -.59049 .778842 173.572 -132.866)"/><circle cx="250.043" cy="199" r="99" stroke-width="7.63" transform="matrix(.313481 .23767 -.23767 .313481 216.956 70.9615)"/><path d="M274.572 164.737C229.085 119.805 155.187 170.571 219 260m63-49c54.435-92.186-95.795-143.219-127.94-44.169" stroke-width="3" stroke-linecap="round" stroke-miterlimit="1.5"/></g><defs><linearGradient id="A" x1="0" y1="248" x2="500" y2="248" gradientUnits="userSpaceOnUse"><stop offset="0" stop-color="#1f2530"/><stop offset="1" stop-color="#202123"/></linearGradient></defs></svg>