<?xml version="1.0" encoding="UTF-8" standalone="no"?><!DOCTYPE svg PUBLIC "-//W3C//DTD SVG 1.1//EN" "http://www.w3.org/Graphics/SVG/1.1/DTD/svg11.dtd"><svg width="100%" height="100%" viewBox="0 0 500 500" version="1.1" xmlns="http://www.w3.org/2000/svg" xmlns:xlink="http://www.w3.org/1999/xlink" xml:space="preserve" xmlns:serif="http://www.serif.com/" style="fill-rule:evenodd;clip-rule:evenodd;stroke-linejoin:round;stroke-miterlimit:2;"><path id="FG" d="M18.569,242.131c-0.155,0.563 -0.164,1.135 -0.049,1.673c-1.851,72.057 29.818,143.946 91.583,190.774c101.871,77.235 247.283,57.233 324.518,-44.638c77.235,-101.871 57.233,-247.283 -44.638,-324.518l-0,0c-101.871,-77.235 -247.283,-57.233 -324.518,44.638c-30.044,39.628 -45.375,85.844 -46.896,132.071Zm160.02,220.8c88.88,29.795 190.667,1.518 250.396,-77.263c74.877,-98.761 55.486,-239.733 -43.274,-314.61l-0.001,-0c-98.761,-74.877 -239.733,-55.487 -314.609,43.274c-23.909,31.535 -38.206,67.373 -43.379,103.998c63.99,-141.856 241.649,-127.866 304.537,-35.587c26.921,39.501 33.111,93.361 0.328,155.556c-3.147,8.223 -7.499,16.149 -13.087,23.52c-31.792,41.932 -91.646,50.165 -133.577,18.374c-41.932,-31.791 -50.165,-91.645 -18.374,-133.577c21.551,-28.426 55.999,-41.365 89.02,-36.847c-52.492,-19.896 -107.31,2.02 -127.978,53.619c-18.344,45.797 -9.842,114.302 49.349,197.253c0.494,0.692 0.702,1.502 0.649,2.29Zm160.242,-156.502c16.382,-47.221 9.033,-88.231 -12.415,-119.704c-63.453,-93.106 -248.476,-102.662 -300.809,56.625c-2.005,70.063 28.702,140.052 88.768,185.592c16.908,12.819 35.053,22.875 53.901,30.247c-57.576,-83.208 -64.79,-152.144 -46.25,-198.43c27.27,-68.082 110.176,-88.506 175.259,-35.283c1.292,0.883 2.575,1.806 3.841,2.766l-0,0c25.327,19.202 38.36,48.642 37.705,78.187Zm-45.863,-75.337c-38.554,-26.112 -91.319,-17.748 -119.784,19.797c-29.433,38.821 -21.811,94.236 17.011,123.669c38.822,29.433 94.236,21.811 123.669,-17.011c2.325,-3.067 4.419,-6.237 6.282,-9.485c-0.224,-0.875 -0.115,-1.835 0.38,-2.673c1.986,-3.362 3.853,-6.7 5.603,-10.009c12.097,-32.066 4.535,-69.029 -20.319,-93.722c-0.812,-0.057 -1.609,-0.394 -2.233,-1.01c-3.468,-3.426 -7.009,-6.609 -10.609,-9.556Z" /></svg>