<svg xmlns="http://www.w3.org/2000/svg" viewBox="0 0 500 500" fill-rule="evenodd" stroke-linejoin="round" stroke-miterlimit="2"><path id="FG" d="M17.111 241.924c-.159.673-.172 1.352-.058 2.001-1.817 72.448 30.051 144.727 92.165 191.819 102.515 77.724 248.846 57.596 326.569-44.919s57.596-248.846-44.919-326.569S142.022 6.66 64.299 109.175c-30.204 39.838-45.63 86.292-47.188 132.749zm162.88 219.931c88.073 29.09 188.696.921 247.828-77.072 74.388-98.117 55.124-238.17-42.993-312.559S146.656 17.1 72.267 115.217c-21.565 28.444-35.26 60.413-41.442 93.274 67.98-133.123 241.074-117.38 303.329-26.292 28.756 42.075 34.333 100.241-5.084 167.358-2.405 4.53-5.205 8.928-8.404 13.147-32.279 42.576-93.052 50.935-135.628 18.656s-50.935-93.053-18.656-135.628c19.187-25.308 48.441-38.526 77.949-38.306-47.957-12.445-95.549 9.491-114.381 56.507-18.218 45.483-9.603 113.475 49.182 195.857.453.636.737 1.343.859 2.065zM340.24 300.409c13.6-44.231 6.058-82.717-14.342-112.567C262.759 95.46 79.034 85.884 27.064 243.606c-1.925 69.531 28.58 138.971 88.196 184.17 15.453 11.716 31.947 21.109 49.073 28.242-55.446-81.986-62.032-149.953-43.666-195.803 27.625-68.97 111.597-89.809 177.515-35.899 1.292.884 2.568 1.804 3.828 2.76h0c23.983 18.183 37.109 45.407 38.23 73.333zm-48.164-68.152c-37.907-25.621-89.75-17.383-117.725 19.516-28.945 38.178-21.449 92.673 16.729 121.618s92.673 21.449 121.618-16.729c2.7-3.562 5.083-7.266 7.154-11.077.083-.195.18-.387.291-.575l.181-.308c17.64-33.388 11.539-74.789-15.199-101.659-.943-.178-1.844-.63-2.577-1.354-3.427-3.384-6.925-6.53-10.472-9.432z"/></svg>