<svg width="100%" height="100%" viewBox="0 0 2084 2084" xmlns="http://www.w3.org/2000/svg"><path id="GLASS" d="M2083.51,0l-2083.33,0l0,2083.33l2083.33,-2083.33Z"/><path id="TEXT" d="M178.871,1576.41l-0,-212.746l47.275,0.001l-0,212.745c-0,47.28 23.637,70.913 70.916,70.913c47.28,-0 70.917,-23.638 70.917,-70.913l0,-212.745l47.275,-0l0,212.745c0,78.792 -39.396,118.192 -118.192,118.192c-78.795,0 -118.191,-39.396 -118.191,-118.192Zm425.487,70.913c31.517,-0 47.279,-15.758 47.279,-47.275c0,-31.517 -15.758,-47.279 -47.279,-47.279l-94.55,-0l0,94.55l94.55,-0l0,0.004Zm47.279,-189.104c0,-31.517 -15.758,-47.275 -47.279,-47.275l-94.55,-0l0,94.55l94.55,-0c31.517,-0 47.279,-15.759 47.279,-47.279l0,0.004Zm-47.279,-94.55c63.038,-0 94.554,31.516 94.554,94.55c0,31.516 -7.879,55.158 -23.637,70.916c15.758,15.759 23.637,39.396 23.637,70.917c0,63.033 -31.516,94.55 -94.554,94.55l-141.829,0l0,-330.933l141.829,-0Zm141.834,-0.004l47.279,-0l-0,330.933l-47.279,-0l-0,-330.933Zm212.741,-0c78.792,-0 118.192,35.458 118.192,106.37l-47.279,0c-0,-39.395 -23.638,-59.091 -70.913,-59.091c-47.275,-0 -70.916,15.758 -70.916,47.275c-0,15.758 31.516,33.883 94.55,54.371c63.033,20.487 94.554,49.641 94.554,87.462c-0,63.033 -39.396,94.55 -118.192,94.55c-78.796,0 -118.192,-35.458 -118.192,-106.371l47.28,0c-0,39.396 23.637,59.092 70.916,59.092c47.28,-0 70.913,-15.758 70.913,-47.275c-0,-15.758 -31.517,-33.883 -94.55,-54.371c-63.034,-20.487 -94.554,-49.642 -94.554,-87.462c-0,-63.034 39.395,-94.55 118.191,-94.55Zm212.742,118.191l0,94.554c0,47.28 23.637,70.913 70.917,70.913c47.279,-0 70.916,-23.638 70.916,-70.913l0,-94.554c0,-47.275 -23.637,-70.912 -70.916,-70.912c-47.28,-0 -70.917,23.637 -70.917,70.912Zm-47.275,94.554l0,-94.554c0,-78.791 39.396,-118.191 118.192,-118.191c78.795,-0 118.191,39.395 118.191,118.191l0,94.554c0,78.792 -39.396,118.192 -118.191,118.192c-78.796,0 -118.192,-39.396 -118.192,-118.192Zm496.404,-212.745l0,47.279l-165.471,-0l0,70.912l165.467,0l-0,47.279l-165.467,0l0,165.467l-47.279,0l0,-330.933l212.746,-0l0.004,-0.004Zm189.104,47.279l0,283.658l-47.279,0l0,-283.658l-94.55,-0l0,-47.279l236.384,-0l-0,47.279l-94.555,-0Z"/><path id="FG" d="M1118.78,665.072c-68.699,-44.56 -178.865,-29.257 -229.017,62.64c-47.632,87.278 1.523,192.9 78.34,223.683c90.272,36.176 158.99,-5.427 188.543,-42.538c83.866,-105.312 12.844,-203.002 -13.265,-225.105c-199.459,-168.858 -494.692,29.865 -230.877,399.581m263.815,-203.847c226.205,-383.079 -397.107,-595.923 -533.312,-187.659c-0.254,0.762 -0.715,1.488 -0.758,2.294c-9.989,186.748 132.126,398.164 378.889,416.378c186.837,13.79 427.019,-132.147 427.019,-403.118c0,-243.267 -202.502,-402.923 -403.118,-403.118c-262.645,-0.254 -412.113,230.274 -403.243,403.118"/></svg>