<svg xmlns="http://www.w3.org/2000/svg" viewBox="0 0 500 500" fill-rule="evenodd" stroke-linejoin="round" stroke-miterlimit="2"><path id="FG" d="M172.14 49.689c11.537-38.334 41.824-49.178 101.541-7.781-45.67-16.15-68.864 3.638-77.824 42.199 65.159 7.359 138.17 20.755 194.713 39.787 20.611-20.941 35.547-37.77 41.661-46.429-4.82 10.907-17.185 28.139-34.687 48.835 14.375 5.086 27.558 10.553 39.128 16.398 11.03-14.961 18.917-26.736 22.613-33.578-2.587 8.463-8.883 20.881-18.041 35.954 53.86 28.796 68.228 66.361-6.048 111.863 28.422 29.596 23.171 61.611-43.488 92.668 45.622-38.604 26.757-75.254-20.944-107.052-39.811 48.998-87.539 100.3-131.648 136.289 13.585 43.497 26.53 77.327 33.313 89.979-10.518-12.723-25.408-43.803-40.71-84.062-12.472 9.774-24.595 18.217-36.104 24.918 15.647 33.612 29.263 58.999 36.399 69.176-10.53-10.019-26.121-33.761-43.332-65.312-48.79 25.941-84.93 17.519-86.412-58.847-39.445 6.834-62.695-15.399-52.393-87.328 6.885 55.236 42.927 62.698 90.418 45.23-24.222-57.098-45.571-119.037-54.741-169.835-28.902-5.84-51.237-9.164-61.854-9.552 11.889-1.945 33.393-.97 60.641 2.454-3.225-20.027-4.4-38.12-2.914-53.228-16.907-1.15-29.843-1.458-37.129-.964 8.16-2.227 21.183-3.517 37.713-3.89 5.66-39.407 31.586-55.776 90.129-27.892zm-21.312 287.043c7.91 17.626 15.967 34.516 23.882 50.173-31.432 9.899-56.611 2.494-69.18-32.834 13.546-2.826 28.863-8.865 45.298-17.339zm53.557-33.038c6.081 20.336 12.509 39.993 18.99 58.304-13.771 9.203-27.074 16.612-39.548 21.627-7.271-16.525-14.732-34.343-21.989-52.835 13.656-7.687 27.957-16.858 42.547-27.096zm110.342-91.234c16.572 7.431 31.97 15.265 45.54 23.447-23.179 25.865-48.542 52.187-74.087 75.626-18.148 16.651-36.387 31.847-54.008 44.392-5.615-19.113-11.18-39.532-16.312-60.458 33.283-24.349 67.589-53.621 98.867-83.007zm-204.071-64.347c18.996 4.252 39.791 9.343 61.324 15.187 5.66 38.175 15.201 79.796 26.445 119.836-15.715 9.703-31.024 18.01-45.482 24.348-9.047-24.407-17.489-49.513-24.494-74.01-8.633-30.192-15.083-59.458-17.793-85.361zm82.596 21.144c29.708 8.582 60.12 18.494 88.589 29.523l19.473 7.857c-21.034 17.832-43.109 35.375-65.085 51.161-8.427 6.053-16.84 11.849-25.182 17.308-4.721-20.762-8.905-41.768-12.191-62.26-2.39-14.9-4.305-29.529-5.604-43.589zm232.294.148c31.572 23.71 40.789 52.568 9.135 87-11.381-11.676-27.997-22.976-48.132-33.685 14.701-18.862 27.926-36.981 38.997-53.315zm-44.176-24.618c14.471 6.29 27.405 13.078 38.216 20.378-12.441 15.916-27.083 33.808-43.144 52.371-14.1-6.98-29.612-13.679-46.05-20.042 18.745-18.217 36.066-36.175 50.978-52.707zM193.658 95.754c37.417 6.03 77.241 14.005 114.206 24.048 23.316 6.335 45.495 13.492 65.213 21.502-16.476 16.081-35.355 33.67-55.538 51.349-39.533-14.492-83.465-27.065-125.356-36.931-1.433-22.115-1.138-42.515 1.475-59.968zm-79.162-10.465c15.857 1.618 33.442 3.732 52.018 6.359-.374 17.767 1.005 37.781 3.732 59.111-21.293-4.62-41.709-8.467-60.373-11.438-1.535-21.076-.302-39.57 4.623-54.032zm56.743-32.406c-2.205 8.336-3.599 17.846-4.281 28.304-17.611-1.564-34.281-2.639-49.482-3.218 9.015-18.685 26.018-28.49 53.763-25.086z"/></svg>