<svg xmlns="http://www.w3.org/2000/svg" viewBox="0 0 500 500" fill-rule="evenodd" stroke-linejoin="round" stroke-miterlimit="2"><path id="FG" d="M79.957 408.387c19.052 0 28.578 9.527 28.578 28.579H97.104c0-11.431-5.716-17.147-17.147-17.147s-17.148 5.716-17.148 17.147v22.863c0 11.432 5.716 17.147 17.148 17.147s17.147-5.715 17.147-17.147h11.431c0 19.053-9.526 28.579-28.578 28.579s-28.579-9.526-28.579-28.579v-22.863c0-19.052 9.526-28.579 28.579-28.579zm117.172 16.233v63.788h-11.431v-80.021h11.431l34.295 34.295v-34.295h11.431v80.021h-11.431v-29.493l-34.295-34.295zm154.325-16.233c19.053 0 28.579 9.527 28.579 28.579 0 14.709-5.658 23.74-16.976 27.093l14.061 24.349h-13.203l-13.204-22.863h-16.404v22.863h-11.431v-80.021h28.578zm-190.162 62.874h-31.208l-5.888 17.147h-12.06l27.493-79.849.057-.172h12.003l.057.172 27.493 79.849h-12.06l-5.887-17.147zm137.178 0h-31.208l-5.888 17.147h-12.06l27.493-79.849.057-.172h12.003l.057.172 27.493 79.849h-12.06l-5.887-17.147zm115.858-21.091l-27.836-41.783h13.775l19.776 29.665 19.777-29.665h13.775l-27.836 41.783v38.238h-11.431V450.17zm-256.98 9.659l-11.66-33.723-11.66 33.723h23.32zm137.178 0l-11.66-33.723-11.661 33.723h23.321zm74.076-22.863c0-11.431-5.716-17.147-17.148-17.147h-17.147v34.294h17.147c11.432 0 17.148-5.715 17.148-17.147zM208.561 30.517L185 11.592l-97.177 30.92-67.927 258.561 141.044 70.522 31.008-55.814L250 330.02l58.052-14.239 31.008 55.814 141.044-70.522-67.927-258.561L315 11.592l-23.561 18.925L250 27.843l-41.439 2.674zm-60.974 250.508v13.526l23.188 11.594-19.323 34.781-104.345-52.172 59.902-228.013 85.022-27.053-1.933 21.256L250 51.079l59.902 3.865-1.933-21.256 85.022 27.053 59.902 228.013-104.345 52.172-19.323-34.781 23.188-11.594v-13.526L250 306.145l-102.413-25.12zm33.926-118.481c21.649 0 39.224 17.575 39.224 39.224s-17.575 39.224-39.224 39.224-39.224-17.576-39.224-39.224 17.576-39.224 39.224-39.224zm137.14 0c-21.649 0-39.224 17.575-39.224 39.224s17.575 39.224 39.224 39.224 39.224-17.576 39.224-39.224-17.576-39.224-39.224-39.224zm-137.14 23.187c8.851 0 16.037 7.186 16.037 16.037s-7.186 16.036-16.037 16.036-16.036-7.186-16.036-16.036 7.186-16.037 16.036-16.037zm137.14 0c8.85 0 16.036 7.186 16.036 16.037s-7.186 16.036-16.036 16.036-16.037-7.186-16.037-16.036 7.186-16.037 16.037-16.037z"/></svg>