<svg xmlns="http://www.w3.org/2000/svg" viewBox="0 0 500 500" fill-rule="evenodd" stroke-linejoin="round" stroke-miterlimit="2"><path id="FG" d="M181.411 408.387c19.053 0 28.579 9.527 28.579 28.579s-9.526 28.579-28.579 28.579h-17.147v22.863h-11.432v-80.021h28.579zm74.305 11.432v68.589h-11.432v-68.589h-22.863v-11.432h57.158v11.432h-22.863zm68.589-11.432c15.242 0 22.863 7.621 22.863 22.863 0 7.621-1.906 13.337-5.716 17.148 3.81 3.81 5.716 9.526 5.716 17.147 0 15.242-7.621 22.863-22.863 22.863H290.01v-80.021h34.295zm0 68.589c7.621 0 11.431-3.81 11.431-11.431s-3.81-11.432-11.431-11.432h-22.863v22.863h22.863zm-125.747-40.01c0-11.431-5.715-17.147-17.147-17.147h-17.147v34.294h17.147c11.432 0 17.147-5.715 17.147-17.147zm137.178-5.716c0-7.621-3.81-11.431-11.431-11.431h-22.863v22.863h22.863c7.621 0 11.431-3.811 11.431-11.432zM208.561 30.517L185 11.592l-97.177 30.92-67.927 258.561 141.044 70.522 31.008-55.814L250 330.02l58.052-14.239 31.008 55.814 141.044-70.522-67.927-258.561L315 11.592l-23.561 18.925L250 27.843l-41.439 2.674zm-60.974 250.508v13.526l23.188 11.594-19.323 34.781-104.345-52.172 59.902-228.013 85.022-27.053-1.933 21.256L250 51.079l59.902 3.865-1.933-21.256 85.022 27.053 59.902 228.013-104.345 52.172-19.323-34.781 23.188-11.594v-13.526L250 306.145l-102.413-25.12zm33.926-118.481c21.649 0 39.224 17.575 39.224 39.224s-17.575 39.224-39.224 39.224-39.224-17.576-39.224-39.224 17.576-39.224 39.224-39.224zm137.14 0c-21.649 0-39.224 17.575-39.224 39.224s17.575 39.224 39.224 39.224 39.224-17.576 39.224-39.224-17.576-39.224-39.224-39.224zm-137.14 23.187c8.851 0 16.037 7.186 16.037 16.037s-7.186 16.036-16.037 16.036-16.036-7.186-16.036-16.036 7.186-16.037 16.036-16.037zm137.14 0c8.85 0 16.036 7.186 16.036 16.037s-7.186 16.036-16.036 16.036-16.037-7.186-16.037-16.036 7.186-16.037 16.037-16.037z"/></svg>