<svg xmlns="http://www.w3.org/2000/svg" viewBox="0 0 500 500" fill-rule="evenodd" stroke-linejoin="round" stroke-miterlimit="2"><path id="FG" d="M250 5.627c134.873 0 244.373 109.5 244.373 244.373S384.873 494.373 250 494.373 5.627 384.873 5.627 250 115.127 5.627 250 5.627zm192.978 132.957c61.492 106.508 24.945 242.902-81.562 304.394s-242.902 24.945-304.394-81.562-24.945-242.902 81.562-304.394 242.902-24.945 304.394 81.562zM75.373 347.054l29.326-76.005-29.326-.237 16.301-41.609h124.819l-16.337 41.594h-50.717l-13.418 34.662h119.02l58.391-152.513h36.88l74.315 194.108h-44.506l-10.676-27.73h-48.036l15.994-41.594h16.098l-21.629-56.43-21.629 56.43-15.945 41.594-10.676 27.73H75.373zm29.041-152.513l16.334-41.595h125.367l-16.206 41.595H104.414z" /></svg>