<svg xmlns="http://www.w3.org/2000/svg" width="100%" height="100%" viewBox="0 0 500 500" fill-rule="evenodd" stroke-linejoin="round" stroke-miterlimit="2"><path id="FG" d="M477.088 34.706c6.473 6.45 10.111 15.224 10.104 24.362V440.92c.007 9.138-3.631 17.911-10.104 24.361a34.36 34.36 0 0 1-24.349 10.098H47.952a34.36 34.36 0 0 1-24.349-10.098 34.32 34.32 0 0 1-10.104-24.367V59.061c-.01-9.136 3.629-17.909 10.104-24.355 6.447-6.467 15.217-10.1 24.349-10.085h404.787c9.132-.015 17.902 3.618 24.349 10.085zm.031 406.214V59.055a24.27 24.27 0 0 0-7.144-17.23 24.33 24.33 0 0 0-17.236-7.138H47.952c-6.464-.008-12.671 2.563-17.236 7.138-4.577 4.568-7.15 10.776-7.145 17.243V440.92v.025c0 13.361 10.995 24.355 24.356 24.355h.025 404.787c6.463.013 12.671-2.556 17.236-7.132 4.423-4.43 7.144-10.493 7.144-17.248zM174.547 307.834v.025c0 11.306-9.304 20.61-20.61 20.61h-.013-88.447V301.89h74.567c4.386 0 7.904-3.588 7.904-7.955v-87.87c0-4.379-3.518-7.93-7.904-7.93H99.973c-4.337.004-7.904 3.574-7.904 7.911v.019 39.989c0 .012-.001.025-.001.038a7.96 7.96 0 0 0 7.905 7.917h32.015v26.579H86.099h-.025c-11.296 0-20.591-9.295-20.591-20.591v-.025-67.812-.019c0-11.306 9.304-20.61 20.61-20.61h67.831c11.314.003 20.623 9.314 20.623 20.629v115.674zM284.27 171.543c11.306.014 20.604 9.317 20.61 20.623v67.812c-.003 11.308-9.302 20.613-20.61 20.623h-67.831-.012c-11.296 0-20.592-9.295-20.592-20.591v-.032-67.812-.013c0-11.304 9.3-20.606 20.604-20.61h67.831zm-6.032 34.522l.001-.081c0-4.302-3.541-7.842-7.843-7.842h-40.058c-4.398 0-7.917 3.544-7.917 7.923v39.989.038c0 4.344 3.573 7.92 7.917 7.923h40.058c4.305-.006 7.843-3.55 7.843-7.854l-.001-.107v-39.989zm156.976 101.769v.025c0 11.306-9.304 20.61-20.61 20.61H326.15V301.89h74.567c4.399 0 7.943-3.588 7.943-7.955v-87.87-.006c0-4.347-3.577-7.924-7.924-7.924h-.019-40.064a7.96 7.96 0 0 0-7.886 7.93v39.989c0 4.392 3.544 7.955 7.886 7.955h31.996v26.579h-45.87-.019c-11.306 0-20.61-9.303-20.61-20.61V192.16v-.013c0-11.31 9.307-20.616 20.617-20.616h.019 67.805c11.311.01 20.613 9.318 20.617 20.629l.006 115.674z"/></svg>