<svg xmlns="http://www.w3.org/2000/svg" width="100%" height="100%" viewBox="0 0 500 500" fill-rule="evenodd" stroke-linejoin="round" stroke-miterlimit="2"><path id="FG" d="M111.521 167.625l-19.338 75.337h151.053l-20.689 74.061h-48.193l12.924-48.884H36.403L69.18 142.925h417.667c-28.625 50.778-79.198 125.172-121.753 125.45l75.212 88.7H388.88l-75.212-90.333-25.514 90.333H238.36l51.141-189.386-177.98-.064zm225.991.063c-6.174 26.504-13.105 51.724-20.171 75.552l41.569.011c22.455-8.512 42.748-39.362 62.523-75.563h-83.921zM90.44 327.228l-7.455 29.847H52.89l7.461-29.847H90.44zM73.848 352.7l5.016-20.197h-9.643L64.205 352.7h9.643zm71.119-5.275l-2.445 9.646H132.36l7.46-29.843h10.158l-1.798 7.458 10.031-7.458h12.087l-19.674 14.664 11.83 15.179h-9.516l-7.971-9.646zm-118.054-4.76l-3.475 14.406H13.153l7.456-29.843h10.289l-2.571 9.904h9.643l2.445-9.904h10.288l-7.46 29.843H32.954l3.602-14.406h-9.643zm80.115-2.572l-4.243 16.978H92.627l7.456-29.843h10.158l-.126.642 5.657 15.952 4.116-16.594h10.289l-7.46 29.843h-9.667l-6.022-16.978zm75.873-12.865h11.441l4.374 29.847h-10.031l-.642-4.633h-10.158l-3.086 4.633h-11.188l19.29-29.847zm-1.672 19.939h6.042l-1.157-7.59-4.885 7.59zm28.034-19.939h10.289l-7.461 29.843h-10.284l7.456-29.843z"/></svg>