<svg width="100%" height="100%" viewBox="0 0 500 500" xmlns="http://www.w3.org/2000/svg" style="fill-rule:evenodd;clip-rule:evenodd;stroke-linejoin:round;stroke-miterlimit:2;"><path id="FG" d="M313.265,432.484l173.638,0c-17.098,-17.383 -29.392,-34.165 -38.56,-50.557l-122.276,-276.557c-3.038,-14.73 1.631,-27.089 11.477,-37.854l-164.601,-0c17.789,10.512 26.841,21.024 32.73,31.535l122.327,274.868c1.826,21.032 -2.686,44.471 -14.735,58.565Zm-300.168,0l112.195,0c-0.695,-51.884 -17.317,-91.823 -43.995,-124.221c-1.725,34.479 -28.311,77.156 -68.2,124.221Zm124.248,-29.947c-5.506,-66.421 -28.39,-120.408 -89.257,-145.08c1.623,-27.153 8.703,-89.318 10.007,-94.827c2.725,26.42 6.36,51.968 12.568,74.904l11.227,-2.041c8.298,-35.204 13.765,-73.49 16.837,-109.274c2.261,36.87 6.336,73.248 12.082,103.15l11.365,-0.19c7.843,-42.75 13.298,-86.215 15.329,-130.128c4.711,46.069 9.265,92.138 15.152,129.978l11.746,-0.041c6.766,-32.46 9.963,-65.669 12.628,-99.301c3.65,39.426 9.261,77.396 18.152,107.507l7.923,2.572c7.41,-24.488 12.526,-52.227 13.618,-78.573c5.646,9.162 8.524,64.626 10.949,96.275c-58.817,24.555 -83.226,76.055 -90.326,145.069Z"/></svg>