<svg width="100%" height="100%" viewBox="0 0 500 500" xmlns="http://www.w3.org/2000/svg" style="fill-rule:evenodd;clip-rule:evenodd;stroke-linejoin:round;stroke-miterlimit:2;"><path id="FG" d="M-0,301.031c0,-53.466 14.675,-109.195 42.583,-152.228c24.758,-38.166 60.491,-64.854 101.474,-64.854c23.733,0 47.329,7.025 71.966,27.141c12.987,10.6 26.387,24.5 40.795,42.741c11.708,-15.812 24.333,-30.771 37.921,-42.62c20.1,-17.525 41.783,-27.262 63.604,-27.262c36.637,0 71.533,21.229 98.241,61.049c29.229,43.608 43.416,98.537 43.416,155.22c0,33.696 -6.646,58.454 -17.946,78.016c-10.925,18.917 -32.2,37.816 -68.004,37.816c-22.254,0 -41.975,-4.833 -63.779,-25.404c-16.762,-15.787 -36.358,-43.833 -51.433,-69.045l-44.841,-74.904l-3.817,-6.317l-3.871,6.854l-15.754,27.908c-31.646,56.108 -39.662,68.891 -55.483,89.978c-27.733,36.933 -51.416,50.929 -82.591,50.929c-36.983,0 -60.37,-16.012 -74.854,-40.15c-11.825,-19.667 -17.629,-45.47 -17.629,-74.87Zm88.57,-124.911c-21.437,32.358 -34.566,80.558 -34.566,126.841c0,19.092 4.192,33.75 9.667,42.616c7.179,11.617 17.892,16.537 28.812,16.537c14.083,0 26.966,-3.496 51.795,-37.837c19.892,-27.525 43.329,-66.158 59.1,-90.378l21.258,-32.662c-10.379,-14.783 -19.308,-26.033 -25.729,-32.854c-12.85,-13.65 -29.366,-30.133 -55.729,-30.133c-21.333,0 -39.454,14.971 -54.616,37.871l0.008,0Zm363.78,125.591c0,-45.937 -10.712,-96.92 -34.304,-133.345c-16.746,-25.837 -38.446,-41.625 -62.316,-41.625c-25.821,0 -46.6,19.475 -69.949,54.195l-4.429,6.725c8.321,12.346 17.017,26.075 26.179,41.333l12.85,21.421c31.021,51.675 48.666,78.262 58.995,90.799c13.283,16.1 22.587,20.9 34.671,20.9c30.654,0 38.304,-28.166 38.304,-60.404Z"/></svg>