<svg xmlns="http://www.w3.org/2000/svg" style="fill-rule:evenodd;clip-rule:evenodd;stroke-linejoin:round;stroke-miterlimit:2" viewBox="0 0 500 500"><path id="FG" d="M16.138 427.539q-.076.68-.067 1.364c.751 57.211 63.065 75.831 97.525 46.473a11 11 0 0 0 1.883-2.071l27.145-38.833c28.517 23.37 74.649 14.685 90.113-19.403h34.037c14.726 32.603 57.946 44.93 89.895 20.093l21.457 32.911q.593.908 1.351 1.684c39.204 40.073 98.569 14.982 104.379-34.884a11 11 0 0 0-.005-2.594l-12.447-102.926c2.244-26.598-7.208-52.485-33.502-74.096-.129-20.99-8.577-35.604-20.105-44.53-27.626-21.391-75.473-9.906-85.021 30.333H168.387c-8.99-41.775-58.303-54.261-86.419-32.651-11.685 8.981-20.216 23.807-20.149 45.246-18.058 13.132-29.619 31.464-32.602 56.657l-.008.074zm21.944 1.725 12.986-116.398c2.407-20.249 12.348-34.468 27.855-44.237a11 11 0 0 0 5.102-10.183c-1.242-15.553 3.361-26.455 11.349-32.594 18.249-14.026 50.946-3.372 52.385 26.734a11 11 0 0 0 10.987 10.474h183.476a11 11 0 0 0 10.975-10.263c1.931-28.769 33.405-38.4 51.131-24.675 7.806 6.044 12.418 16.639 11.442 31.648a11 11 0 0 0 4.381 9.517c22.76 17.054 31.347 37.666 29.245 59.159-.078.796-.069 1.598.027 2.392l12.421 102.71c-4.488 30.748-41.176 45.811-65.909 21.557l-28.039-43.004a11 11 0 0 0-17.539-1.184c-21.706 25.126-57.793 16.977-65.319-9.822a11 11 0 0 0-10.591-8.026h-49.378a11 11 0 0 0-10.59 8.023c-7.967 28.334-46.977 33.508-64.244 9.607a11 11 0 0 0-17.932.139l-33.991 48.626c-21.803 17.208-59.31 4.873-60.23-30.196zM250 166.141c13.206 0 23.928 10.722 23.928 23.928S263.206 213.997 250 213.997s-23.928-10.722-23.928-23.928 10.722-23.928 23.928-23.928m0-72.219c13.206 0 23.928 10.722 23.928 23.928S263.206 141.779 250 141.779s-23.928-10.722-23.928-23.929S236.794 93.922 250 93.922m0-72.303c13.206 0 23.928 10.722 23.928 23.928S263.206 69.475 250 69.475s-23.928-10.722-23.928-23.928S236.794 21.619 250 21.619"/></svg>