<svg width="100%" height="100%" viewBox="0 0 2134 2134" version="1.1" xmlns="http://www.w3.org/2000/svg" xmlns:xlink="http://www.w3.org/1999/xlink" xml:space="preserve" xmlns:serif="http://www.serif.com/" style="fill-rule:evenodd;clip-rule:evenodd;stroke-linejoin:round;stroke-miterlimit:2;"><g><path d="M2042.67,474.667c-57.867,-102.934 -120.667,-121.867 -248.534,-129.067c-127.733,-8.667 -448.933,-12.267 -727.2,-12.267c-278.8,0 -600.133,3.6 -727.733,12.134c-127.6,7.333 -190.533,26.133 -248.933,129.2c-59.6,102.8 -90.267,279.866 -90.267,591.6l-0,1.066c-0,310.4 30.667,488.8 90.267,590.534c58.4,102.933 121.2,121.6 248.8,130.266c127.733,7.467 449.066,11.867 727.866,11.867c278.267,0 599.467,-4.4 727.334,-11.733c127.866,-8.667 190.666,-27.334 248.533,-130.267c60.133,-101.733 90.533,-280.133 90.533,-590.533l0,-1.067c0,-311.867 -30.4,-488.933 -90.666,-591.733Zm-1242.67,992l-0,-800l666.667,400l-666.667,400Z" style="fill:#fff;fill-rule:nonzero;"/></g></svg>