<?xml version="1.0" encoding="UTF-8" standalone="no"?><!DOCTYPE svg PUBLIC "-//W3C//DTD SVG 1.1//EN" "http://www.w3.org/Graphics/SVG/1.1/DTD/svg11.dtd"><svg width="100%" height="100%" viewBox="0 0 48 48" version="1.1" xmlns="http://www.w3.org/2000/svg" xmlns:xlink="http://www.w3.org/1999/xlink" xml:space="preserve" xmlns:serif="http://www.serif.com/" style="fill-rule:evenodd;clip-rule:evenodd;stroke-linejoin:round;stroke-miterlimit:2;"><g><path d="M38,12l-16,0l-4,-4l-10,0c-2.2,0 -4,1.8 -4,4l0,24c0,2.2 1.8,4 4,4l31,0c1.7,0 3,-1.3 3,-3l0,-21c0,-2.2 -1.8,-4 -4,-4Z" style="fill:#ffa000;fill-rule:nonzero;"/><path d="M35.91,13.408l-27.336,0c-1.931,0 -3.327,1.692 -3.183,3.989l0.961,22.448l32.22,0.155c1.931,0 3.327,-1.692 3.183,-3.989l-0.771,-16.922c-0.06,-2.901 -2.534,-5.681 -5.075,-5.681Z" style="fill:#fff;fill-rule:nonzero;"/><path d="M41.98,18l-28.388,0c-2.005,0 -3.799,1.4 -4.116,3.3l-3.588,18.7l33.453,0c2.005,0 3.799,-1.4 4.116,-3.3l2.638,-14c0.528,-2.4 -1.477,-4.7 -4.116,-4.7Z" style="fill:#ffca28;fill-rule:nonzero;"/></g></svg>