<?xml version="1.0" encoding="UTF-8" standalone="no"?><!DOCTYPE svg PUBLIC "-//W3C//DTD SVG 1.1//EN" "http://www.w3.org/Graphics/SVG/1.1/DTD/svg11.dtd"><svg width="100%" height="100%" viewBox="0 0 48 48" version="1.1" xmlns="http://www.w3.org/2000/svg" xmlns:xlink="http://www.w3.org/1999/xlink" xml:space="preserve" xmlns:serif="http://www.serif.com/" style="fill-rule:evenodd;clip-rule:evenodd;stroke-linejoin:round;stroke-miterlimit:2;"><path d="M40,12l-18,0l-4,-4l-10,0c-2.2,0 -4,1.8 -4,4l0,8l40,0l0,-4c0,-2.2 -1.8,-4 -4,-4Z" style="fill:#ffa000;fill-rule:nonzero;"/><path d="M40,12l-32,0c-2.2,0 -4,1.8 -4,4l0,20c0,2.2 1.8,4 4,4l32,0c2.2,0 4,-1.8 4,-4l0,-20c0,-2.2 -1.8,-4 -4,-4Z" style="fill:#ffca28;fill-rule:nonzero;"/></svg>