<?xml version="1.0" encoding="UTF-8" standalone="no"?><!DOCTYPE svg PUBLIC "-//W3C//DTD SVG 1.1//EN" "http://www.w3.org/Graphics/SVG/1.1/DTD/svg11.dtd"><svg width="100%" height="100%" viewBox="0 0 48 48" version="1.1" xmlns="http://www.w3.org/2000/svg" xmlns:xlink="http://www.w3.org/1999/xlink" xml:space="preserve" xmlns:serif="http://www.serif.com/" style="fill-rule:evenodd;clip-rule:evenodd;stroke-linejoin:round;stroke-miterlimit:2;"><g><path d="M38,12l-16,0l-4,-4l-10,0c-2.2,0 -4,1.8 -4,4l0,24c0,2.2 1.8,4 4,4l31,0c1.7,0 3,-1.3 3,-3l0,-21c0,-2.2 -1.8,-4 -4,-4Z" style="fill:#ffa000;fill-rule:nonzero;"/><path d="M42.2,18l-26.9,0c-1.9,0 -3.6,1.4 -3.9,3.3l-3.4,18.7l31.7,0c1.9,0 3.6,-1.4 3.9,-3.3l2.5,-14c0.5,-2.4 -1.4,-4.7 -3.9,-4.7Z" style="fill:#ffca28;fill-rule:nonzero;"/></g></svg>