<svg xmlns="http://www.w3.org/2000/svg" viewBox="0 0 24 24" fill-rule="evenodd" stroke-linejoin="round" stroke-miterlimit="2"><path id="icoKofi" d="M23.868 8.97c.378 1.926-.063 3.741-1.243 5.112-.601.698-1.36 1.246-2.258 1.629-.852.363-1.787.559-2.781.584-.049.604-.175 1.122-.382 1.582-.439.973-1.211 1.608-2.295 1.884l-.009.003c-.26.062-.456.062-.663.062l-11.135.046h-.003a3.6 3.6 0 0 1-1.429-.348C.985 19.192.149 18.486.058 17.009l-.001-.023C-.034 13.099.011 5.856.012 5.783v-.188c0-.615.492-1.467 1.417-1.467l16.446.001a6.3 6.3 0 0 1 3.588 1.108c.871.57 1.995 1.678 2.403 3.725l.001.005zM1.267 16.945c.047.712.36 1.213.931 1.49a2.39 2.39 0 0 0 .903.226h.065l11.061-.045h.012c.171 0 .257 0 .376-.029 1.2-.308 1.785-1.258 1.785-2.902a.61.61 0 0 1 .187-.438c.119-.114.281-.174.445-.167 1.92.087 3.624-.565 4.675-1.787.934-1.085 1.279-2.538.973-4.092-.263-1.318-.897-2.312-1.886-2.955-.006-.004-.012-.008-.018-.013-.82-.576-1.851-.893-2.901-.893L1.429 5.338c-.161 0-.204.244-.207.261v.188l.045 11.158zm15.749-3.438c-.316-.021-.563-.287-.563-.604V7.505c0-.334.272-.606.606-.606h1.099c.923 0 1.749.383 2.325 1.077.475.549.718 1.244.717 2.065 0 1.751-.801 2.892-2.38 3.394-.038.011-.077.02-.116.024a10.49 10.49 0 0 1-1.163.063 7.57 7.57 0 0 1-.525-.015zm.648-1.197c.291-.003.575-.019.846-.048 1.037-.347 1.48-1.013 1.48-2.221 0-.53-.139-.948-.426-1.277l-.009-.011c-.343-.415-.839-.643-1.397-.643h-.494v4.2zm-8.97 3.892c-.047-.046-.096-.096-.096-.046-.429-.383-3.203-2.866-3.824-3.728-.67-.955-1.004-2.583-.096-3.537s2.867-1.05 4.158.383c0 0 1.483-1.674 3.299-.908 1.77.763 1.72 2.821.67 4.062-1.195 1.384-3.824 3.774-3.824 3.774s-.096.096-.287 0z"/></svg>