<svg xmlns="http://www.w3.org/2000/svg" viewBox="0 0 24 24"  fill-rule="evenodd" stroke-linejoin="round" stroke-miterlimit="2"><path id="icoNetworking" d="M12.74 9.524c-.022-.043.222-.065.266-.065.048.005-.127.291-.266.065zm-1.39-1.986l.07-.02-.033.087c.056.101.014.161.005.214l-.096.061c-.034.042.167.048.169.055.008.021-.243.058-.196.111.062.088.532-.126.458-.114.145-.073.02-.081-.062-.124-.028-.139-.052-.354-.139-.439l.058-.065c-.135-.194-.234.234-.234.234zM20 12c0 4.389-3.611 8-8 8s-8-3.611-8-8 3.611-8 8-8 8 3.611 8 8zm-5.612-3.473c-.003-.095-.123-.184-.246-.021-.087.112-.072.284-.12.36-.067.114.368.22.368.113.017-.179.473-.041.562-.016.16.045.416-.146.137-.246-.231-.083-.352-.173-.372-.337 0 0 .121-.114.068-.107-.141.016-.397.507-.397.254zM18.46 12c0-.669-.114-1.345-.231-1.702-.037-.112-.123-.202-.232-.244-.166-.064-.865.386-.971.164l-.369.005c-.078-.043-.293-.333-.393-.297-.198.072.307.624.445.696.131-.099.55-.301.641-.025.174.521-.477 1.089-.808 1.39-.497.449-.405-.291-.743-.551-.178-.136-.176-.427-.355-.527-.08-.045-.447-.469-.445-.526l-.009.107c-.061.046-.19-.173-.204-.208 0 .191.311.495.412.647.176.262.27.644.483.857.116.116.556.591.67.581l.589-.279c.416.099-.979 2.073-1.111 2.317-.109.205.088.711.072.954-.02.28-.24.371-.447.523-.225.163-.172.481-.361.598-.334.206-.573.875-1.048.872-.14 0-.737.233-.817.004-.061-.165-.141-.291-.227-.455s-.01-.326-.111-.467c-.072-.099-.308-.322-.329-.438-.001-.1.075-.405.181-.458.148-.076.029-.296.011-.424-.03-.228-.172-.417-.343-.55-.252-.193-.121-.347-.062-.623 0-.132-.08-.306-.257-.253-.366.106-.255-.285-.521-.267-.191.014-.348.135-.525.188-.225.067-.453-.053-.674-.081-.91-.115-1.207-1.155-.971-1.906l-.03-.445c.103-.228.311-.483.493-.656.102-.097.233-.072.354-.147.186-.117.188-.358.369-.505.259-.21.612-.206.949-.251.18-.024.864-.172.973-.039 0 .024.123.391-.013.37.279.015.679.484.944.375.137-.057.088-.476.367-.273.17.122.929.176 1.087.045.098-.08.151-.602.033-.66.074.074-.397.08-.441.063-.077-.028-.149.074-.274.017.075.035-.417-.229-.141-.432l-.349.069-.083.178c-.194.099-.342-.34-.416-.389s-.656-.457-.498-.191l.512.508c-.025.017-.135-.185-.135-.038.033-.087.014.375-.067.224l.003-.173c0-.055-.146-.108-.176-.146-.08-.101-.295-.322-.412-.375-.031-.015-.493.057-.532.072l-.116.201-.271.138-.1.228c-.046.039-.496.188-.498.194.02-.049-.314-.111-.293-.208.025-.106.139-.439.109-.562-.031-.128.694.184.741-.152.019-.145.029-.315-.204-.339.046.005.45-.159.518-.233.095-.108.312-.286.468-.286.184 0 .144-.267.229-.397.085.034-.046.243.057.328-.007-.066.288.037.316.021.067-.035.442-.015.384-.191s.033-.126.117-.164c-.014.006.22-.4.261-.267-.028-.137-.272.048-.357.041-.196-.016-.114-.336-.04-.43.057-.075-.156-.166-.16-.023-.002.213-.2.405-.154.688.068.426-.477-.103-.523-.074-.182.109-.33-.138-.236-.288l.422-.308c.067-.115.146-.249.249-.336.347-.291.441-.058.786-.026.338.031.113.08.068.209s.186.167.265.064c.046-.06.147-.209.192-.319.058-.143.582-.127.216-.347-.241-.144-1.296-.435-2.002-.435-.153 0-.259.17-.376.267-.23.19-.819.565-1.148.452-.335-.116-1.054.427-1.168.43-.043.002 0-.411.23-.441-.1.015.805-.457.781-.556-.029-.116-1.81.532-1.73.662.038.06.193.06-.01.19-.117.07-.242.518-.35.518-.327.143-.35-.281-.712.265l-.579.233a6.43 6.43 0 0 0-1.668 3.352c-.008.051.215.146.244.181.072.087.072.46.107.583.09.309.311.481.479.762.101.167.265.591.213.767.07-.115.692.527.806.661.268.315.475.697.039 1.008-.14.101.213.73.031.885l-.234.06c-.229.141-.126.488.014.635 1.177 1.229 2.834 1.996 4.67 1.996 3.566 0 6.46-2.892 6.46-6.46zm-7.442-4.111c.081-.036.189-.034.201-.142l.051-.064c.023-.034-.043-.089-.069-.095l-.097.067-.047.012-.044.056.005.031-.057.068c-.055.056.002.091.057.067zM2.324 9.518C.941 7.659-.71 4.904.323 3.139.627 2.62 1.282 2 2.678 2c1.375 0 3.048.605 4.467 1.266a9.93 9.93 0 0 0-1.683 1.185c-1.163-.464-2.117-.696-2.784-.696-.255 0-.702.035-.84.271-.195.333-.109 1.434 1.235 3.492-.321.638-.572 1.308-.749 2zm16.214-5.067c.758-.302 3.212-1.129 3.624-.425.404.689-.521 2.385-1.236 3.491.319.632.57 1.302.75 2.001 1.382-1.858 3.033-4.614 2.001-6.378-.304-.52-.959-1.14-2.355-1.14-1.374 0-3.047.605-4.466 1.266.603.336 1.165.735 1.682 1.185zm3.138 10.031c-.18.699-.431 1.369-.75 2.001 1.342 2.055 1.432 3.157 1.236 3.491-.412.705-2.862-.126-3.621-.428-.52.451-1.082.852-1.688 1.189 1.386.645 3.08 1.265 4.469 1.265 1.396 0 2.051-.62 2.354-1.139 1.042-1.778-.645-4.555-2-6.379zM5.459 19.547c-.759.302-3.209 1.133-3.621.428-.195-.334-.105-1.436 1.236-3.491-.318-.632-.569-1.301-.749-2C.969 16.307-.717 19.085.323 20.861.627 21.38 1.282 22 2.678 22c1.39 0 3.083-.62 4.469-1.264a10.03 10.03 0 0 1-1.688-1.189z" fill-rule="nonzero"/></svg>