<svg xmlns="http://www.w3.org/2000/svg" viewBox="0 0 60 60"  fill-rule="evenodd" stroke-linejoin="round" stroke-miterlimit="2"><path id="icoQuestion" d="M36.18 52.564c0 3.276-2.652 5.936-5.936 5.936a5.94 5.94 0 0 1-5.936-5.936 5.94 5.94 0 0 1 5.936-5.939c3.283 0 5.936 2.656 5.936 5.939zM30.43 1.5c-9.568 0-16.766 6.395-16.766 19h9.39c0-5.472 2.155-9.948 7.182-9.948 2.964 0 6.107 1.965 6.376 5.727.293 3.956-1.82 5.962-4.495 8.508-6.943 6.601-6.688 9.614-6.688 17.089h9.367c0-3.45-.372-5.955 4.366-11.066 3.158-3.409 7.091-7.653 7.174-14.113C46.447 7.284 39.801 1.5 30.43 1.5z"/></svg>