<svg xmlns="http://www.w3.org/2000/svg" viewBox="0 0 24 24"  fill-rule="evenodd" stroke-linejoin="round" stroke-miterlimit="2"><path id="icoDiscord" d="M19.54 0C20.896 0 22 1.104 22 2.472V24l-2.58-2.28-1.452-1.344-1.536-1.428.636 2.22H3.46c-1.356 0-2.46-1.104-2.46-2.472V2.472C1 1.104 2.104 0 3.46 0h16.08zm-4.632 15.672c2.652-.084 3.672-1.824 3.672-1.824 0-3.864-1.728-6.996-1.728-6.996-1.728-1.296-3.372-1.26-3.372-1.26l-.168.192c2.04.624 2.988 1.524 2.988 1.524a9.78 9.78 0 0 0-3.612-1.152c-.864-.096-1.692-.072-2.424.024l-.204.024c-.42.036-1.44.192-2.724.756l-.708.348s.996-.948 3.156-1.572l-.12-.144s-1.644-.036-3.372 1.26c0 0-1.728 3.132-1.728 6.996 0 0 1.008 1.74 3.66 1.824l.804-.996c-1.524-.456-2.1-1.416-2.1-1.416l.336.204.048.036.047.027.014.006.047.027c.3.168.6.3.876.408.492.192 1.08.384 1.764.516.9.168 1.956.228 3.108.012.564-.096 1.14-.264 1.74-.516.42-.156.888-.384 1.38-.708 0 0-.6.984-2.172 1.428l.792.972zm-5.58-5.604c-.684 0-1.224.6-1.224 1.332s.552 1.332 1.224 1.332c.684 0 1.224-.6 1.224-1.332.012-.732-.54-1.332-1.224-1.332zm4.38 0c-.684 0-1.224.6-1.224 1.332s.552 1.332 1.224 1.332c.684 0 1.224-.6 1.224-1.332s-.54-1.332-1.224-1.332z"/></svg>