<svg xmlns="http://www.w3.org/2000/svg" viewBox="0 0 24 24"  fill-rule="evenodd" stroke-linejoin="round" stroke-miterlimit="2"><path id="icoGitHub" d="M12 2c5.514 0 10 4.486 10 10s-4.486 10-10 10S2 17.514 2 12 6.486 2 12 2zm0-2C5.373 0 0 5.373 0 12s5.373 12 12 12 12-5.373 12-12S18.627 0 12 0zm0 6a6.03 6.03 0 0 0-6.001 6c0 2.577 1.66 4.879 4.105 5.693.3.056.396-.13.396-.289v-1.117c-1.669.363-2.017-.707-2.017-.707-.272-.693-.666-.878-.666-.878-.544-.373.041-.365.041-.365.603.042.92.619.92.619.535.917 1.403.652 1.746.499.054-.388.209-.652.381-.802-1.333-.152-2.733-.667-2.733-2.965a2.32 2.32 0 0 1 .618-1.61c-.062-.153-.268-.764.058-1.59 0 0 .504-.161 1.65.615.479-.133.992-.199 1.502-.202.51.002 1.023.069 1.503.202 1.146-.776 1.648-.615 1.648-.615.327.826.121 1.437.06 1.588.385.42.617.955.617 1.61 0 2.305-1.404 2.812-2.74 2.96.216.186.412.551.412 1.111v1.646c0 .16.096.347.4.288C16.283 16.898 18 14.65 18 12a6.03 6.03 0 0 0-6-6z" fill-rule="nonzero"/></svg>