<?xml version="1.0" encoding="UTF-8" standalone="no"?><!DOCTYPE svg PUBLIC "-//W3C//DTD SVG 1.1//EN" "http://www.w3.org/Graphics/SVG/1.1/DTD/svg11.dtd"><svg width="100%" height="100%" viewBox="0 0 768 264" version="1.1" xmlns="http://www.w3.org/2000/svg" xmlns:xlink="http://www.w3.org/1999/xlink" xml:space="preserve" xmlns:serif="http://www.serif.com/" style="fill-rule:evenodd;clip-rule:evenodd;stroke-linejoin:round;stroke-miterlimit:2;"><g><g><g><path id="O1" d="M592.788,23.481l165,0l0,218.307l-92.473,0l-72.527,-75.861l0,-86.6l55.847,0l0,107.885l53.307,0l0,-107.885l-109.154,0l0,-55.846" style="fill:#fff;"/><path id="O2" d="M592.788,197.668l42.208,44.12l-42.208,0l0,-44.12Z" style="fill:#fff;"/></g><g><path id="N1" d="M398.596,0l0,241.154l55.893,0l0,-101.479l118.037,124.325l0,-241.154l-55.897,0l0,101.517l-118.033,-124.363Z" style="fill:#fff;"/><path id="N2" d="M450.43,22.846l50.988,53.308l0,-53.308l-50.988,0Z" style="fill:#fff;"/></g><path id="C" d="M204.404,22.212l0,219.576l165,0l0,-54.56l-109.133,0l0,-107.916l109.133,0l0,-57.1l-165,0" style="fill:#fff;"/><path id="T" d="M10.212,22.212l0,55.891l46.984,0l0,163.685l55.846,0l0,-163.685l71.312,0l0,-55.891l-174.142,0Z" style="fill:#fff;"/></g></g></svg>